M48
;DRILL file {KiCad 4.0.6} date 04/01/17 00:44:58
;FORMAT={2:4/ absolute / inch / suppress leading zeros}
FMAT,2
INCH,TZ
T1C0.013
T2C0.039
T3C0.040
%
G90
G05
M72
T1
X22677Y-16161
X22854Y-17913
X22874Y-22224
X22953Y-24469
X23228Y-16398
X23248Y-17283
X23445Y-14016
X23524Y-21043
X23642Y-16949
X23780Y-21772
X24823Y-16693
X26043Y-18386
X26260Y-23780
X26594Y-21634
X26791Y-23524
X27323Y-21299
X27362Y-22953
T2
X23935Y-12510
X24331Y-14183
X24331Y-15183
X24331Y-16183
X24331Y-17183
X24331Y-20183
X24331Y-21183
X24331Y-22183
X24331Y-23183
X24935Y-12510
X25331Y-15183
X25331Y-16183
X25331Y-17183
X25331Y-18183
X25331Y-19183
X25331Y-20183
X25331Y-21183
X25331Y-22183
X25935Y-12510
T3
X22055Y-12612
X22055Y-13612
X22055Y-14612
X22055Y-15612
X22055Y-16612
X22055Y-17612
X22055Y-18612
X22055Y-19612
X22055Y-20612
X22055Y-21612
X22055Y-22612
X22055Y-23612
X22055Y-24612
X22055Y-25612
X23055Y-25612
X24055Y-25612
X25055Y-25612
X26055Y-25612
X27055Y-25612
X28055Y-12612
X28055Y-13612
X28055Y-14612
X28055Y-15612
X28055Y-16612
X28055Y-17612
X28055Y-18612
X28055Y-19612
X28055Y-20612
X28055Y-21612
X28055Y-22612
X28055Y-23612
X28055Y-24612
X28055Y-25612
T0
M30
