G04 #@! TF.FileFunction,Copper,L1,Top,Signal*
%FSLAX46Y46*%
G04 Gerber Fmt 4.6, Leading zero omitted, Abs format (unit mm)*
G04 Created by KiCad (PCBNEW 4.0.6) date 04/01/17 00:44:48*
%MOMM*%
%LPD*%
G01*
G04 APERTURE LIST*
%ADD10C,0.100000*%
%ADD11C,0.300000*%
%ADD12R,1.700000X1.700000*%
%ADD13O,1.700000X1.700000*%
%ADD14C,1.701800*%
%ADD15C,0.685800*%
%ADD16C,0.254000*%
%ADD17C,0.609600*%
G04 APERTURE END LIST*
D10*
D11*
X105053572Y-115578571D02*
X105410715Y-116578571D01*
X105767857Y-115578571D01*
X107125000Y-116578571D02*
X106267857Y-116578571D01*
X106696429Y-116578571D02*
X106696429Y-115078571D01*
X106553572Y-115292857D01*
X106410714Y-115435714D01*
X106267857Y-115507143D01*
X44400002Y-115578571D02*
X45328573Y-115578571D01*
X44828573Y-116150000D01*
X45042859Y-116150000D01*
X45185716Y-116221429D01*
X45257145Y-116292857D01*
X45328573Y-116435714D01*
X45328573Y-116792857D01*
X45257145Y-116935714D01*
X45185716Y-117007143D01*
X45042859Y-117078571D01*
X44614287Y-117078571D01*
X44471430Y-117007143D01*
X44400002Y-116935714D01*
X45971430Y-116935714D02*
X46042858Y-117007143D01*
X45971430Y-117078571D01*
X45900001Y-117007143D01*
X45971430Y-116935714D01*
X45971430Y-117078571D01*
X46542859Y-115578571D02*
X47471430Y-115578571D01*
X46971430Y-116150000D01*
X47185716Y-116150000D01*
X47328573Y-116221429D01*
X47400002Y-116292857D01*
X47471430Y-116435714D01*
X47471430Y-116792857D01*
X47400002Y-116935714D01*
X47328573Y-117007143D01*
X47185716Y-117078571D01*
X46757144Y-117078571D01*
X46614287Y-117007143D01*
X46542859Y-116935714D01*
X48900001Y-117078571D02*
X48042858Y-117078571D01*
X48471430Y-117078571D02*
X48471430Y-115578571D01*
X48328573Y-115792857D01*
X48185715Y-115935714D01*
X48042858Y-116007143D01*
X49542858Y-116935714D02*
X49614286Y-117007143D01*
X49542858Y-117078571D01*
X49471429Y-117007143D01*
X49542858Y-116935714D01*
X49542858Y-117078571D01*
X50185715Y-115721429D02*
X50257144Y-115650000D01*
X50400001Y-115578571D01*
X50757144Y-115578571D01*
X50900001Y-115650000D01*
X50971430Y-115721429D01*
X51042858Y-115864286D01*
X51042858Y-116007143D01*
X50971430Y-116221429D01*
X50114287Y-117078571D01*
X51042858Y-117078571D01*
X51971429Y-115578571D02*
X52114286Y-115578571D01*
X52257143Y-115650000D01*
X52328572Y-115721429D01*
X52400001Y-115864286D01*
X52471429Y-116150000D01*
X52471429Y-116507143D01*
X52400001Y-116792857D01*
X52328572Y-116935714D01*
X52257143Y-117007143D01*
X52114286Y-117078571D01*
X51971429Y-117078571D01*
X51828572Y-117007143D01*
X51757143Y-116935714D01*
X51685715Y-116792857D01*
X51614286Y-116507143D01*
X51614286Y-116150000D01*
X51685715Y-115864286D01*
X51757143Y-115721429D01*
X51828572Y-115650000D01*
X51971429Y-115578571D01*
X53900000Y-117078571D02*
X53042857Y-117078571D01*
X53471429Y-117078571D02*
X53471429Y-115578571D01*
X53328572Y-115792857D01*
X53185714Y-115935714D01*
X53042857Y-116007143D01*
X54400000Y-115578571D02*
X55400000Y-115578571D01*
X54757143Y-117078571D01*
D12*
X65875000Y-31775000D03*
D13*
X63335000Y-31775000D03*
X60795000Y-31775000D03*
D14*
X56020001Y-34575000D03*
X56020001Y-37115000D03*
X56020001Y-39655000D03*
X56020001Y-42195000D03*
X56020001Y-44735000D03*
X56020001Y-47275000D03*
X56020001Y-49815000D03*
X56020001Y-52355000D03*
X56020001Y-54895000D03*
X56020001Y-57435000D03*
X56020001Y-59975000D03*
X56020001Y-62515000D03*
X56020001Y-65055000D03*
X71260001Y-65055000D03*
X71260001Y-62515000D03*
X71260001Y-59975000D03*
X71260001Y-57435000D03*
X71260001Y-54895000D03*
X71260001Y-52355000D03*
X71260001Y-49815000D03*
X71260001Y-47275000D03*
X71260001Y-44735000D03*
X71260001Y-42195000D03*
X71260001Y-39655000D03*
X71260001Y-37115000D03*
X71260001Y-34575000D03*
X71260001Y-32035000D03*
X56020001Y-32035000D03*
X58560001Y-65055000D03*
X61100001Y-65055000D03*
X63640001Y-65055000D03*
X66180001Y-65055000D03*
X68720001Y-65055000D03*
D12*
X61800000Y-36025000D03*
D13*
X61800000Y-38565000D03*
X64340000Y-38565000D03*
X61800000Y-41105000D03*
X64340000Y-41105000D03*
X61800000Y-43645000D03*
X64340000Y-43645000D03*
X64340000Y-46185000D03*
X64340000Y-48725000D03*
X61800000Y-51265000D03*
X64340000Y-51265000D03*
X61800000Y-53805000D03*
X64340000Y-53805000D03*
X61800000Y-56345000D03*
X64340000Y-56345000D03*
X61800000Y-58885000D03*
D15*
X60400000Y-55300000D03*
X60050000Y-43050000D03*
X57600000Y-41050000D03*
X58050000Y-45500000D03*
X58100000Y-56450000D03*
X59750000Y-53450000D03*
X59000000Y-41650000D03*
X59050000Y-43900000D03*
X58300000Y-62150000D03*
X59550000Y-35600000D03*
X66700000Y-60400000D03*
X66150000Y-46700000D03*
X63050000Y-42400000D03*
X68050000Y-59750000D03*
X67550000Y-54950000D03*
X69500000Y-58300000D03*
X69400000Y-54100000D03*
D16*
X61975000Y-48725000D02*
X64340000Y-48725000D01*
X60450000Y-50250000D02*
X61975000Y-48725000D01*
X60450000Y-55250000D02*
X60450000Y-50250000D01*
X60400000Y-55300000D02*
X60450000Y-55250000D01*
D17*
X64340000Y-48725000D02*
X65475000Y-48725000D01*
X65875000Y-33250000D02*
X65875000Y-31775000D01*
X67125000Y-34500000D02*
X65875000Y-33250000D01*
X67125000Y-47075000D02*
X67125000Y-34500000D01*
X65475000Y-48725000D02*
X67125000Y-47075000D01*
X65875000Y-31775000D02*
X67100000Y-31775000D01*
X69615000Y-37115000D02*
X71260001Y-37115000D01*
X69025000Y-36525000D02*
X69615000Y-37115000D01*
X69025000Y-33700000D02*
X69025000Y-36525000D01*
X67100000Y-31775000D02*
X69025000Y-33700000D01*
X61800000Y-36025000D02*
X61800000Y-35650000D01*
X61800000Y-35650000D02*
X63335000Y-34115000D01*
X63335000Y-34115000D02*
X63335000Y-31775000D01*
X60795000Y-31775000D02*
X60795000Y-31055000D01*
X60795000Y-31055000D02*
X61875000Y-29975000D01*
X61875000Y-29975000D02*
X70550000Y-29975000D01*
X70550000Y-29975000D02*
X71260001Y-30685001D01*
X71260001Y-30685001D02*
X71260001Y-32035000D01*
D16*
X61800000Y-43645000D02*
X60695000Y-43645000D01*
X60050000Y-43050000D02*
X60695000Y-43645000D01*
X60785000Y-38565000D02*
X58650000Y-40700000D01*
X58650000Y-40700000D02*
X57950000Y-40700000D01*
X57950000Y-40700000D02*
X57600000Y-41050000D01*
X60785000Y-38565000D02*
X61800000Y-38565000D01*
X58150000Y-56400000D02*
X58050000Y-45500000D01*
X58100000Y-56450000D02*
X58150000Y-56400000D01*
X59750000Y-53450000D02*
X59750000Y-64000000D01*
X60000000Y-64250000D02*
X60805000Y-65055000D01*
X59750000Y-64000000D02*
X60000000Y-64250000D01*
X61100001Y-65055000D02*
X60805000Y-65055000D01*
X60150000Y-39850000D02*
X59000000Y-41650000D01*
X63000000Y-39850000D02*
X60150000Y-39850000D01*
X64285000Y-38565000D02*
X63000000Y-39850000D01*
X59100000Y-44150000D02*
X59050000Y-43900000D01*
X59100000Y-61350000D02*
X59100000Y-44150000D01*
X58300000Y-62150000D02*
X59100000Y-61350000D01*
X64340000Y-38565000D02*
X64285000Y-38565000D01*
X66075000Y-41910000D02*
X64340000Y-43645000D01*
X66075000Y-37725000D02*
X66075000Y-41910000D01*
X65650000Y-37300000D02*
X66075000Y-37725000D01*
X60500000Y-37300000D02*
X65650000Y-37300000D01*
X60175000Y-36975000D02*
X60500000Y-37300000D01*
X60175000Y-36225000D02*
X60175000Y-36975000D01*
X59550000Y-35600000D02*
X60175000Y-36225000D01*
X62050000Y-42400000D02*
X62200000Y-42350000D01*
X62200000Y-42350000D02*
X63495000Y-41055000D01*
X63495000Y-41055000D02*
X64340000Y-41105000D01*
X56020001Y-59975000D02*
X56020001Y-59629999D01*
X56020001Y-59629999D02*
X57400000Y-58250000D01*
X57400000Y-58250000D02*
X57400000Y-43300000D01*
X57400000Y-43300000D02*
X58300000Y-42400000D01*
X58300000Y-42400000D02*
X62050000Y-42400000D01*
X71260001Y-65055000D02*
X71260001Y-64960001D01*
X71260001Y-64960001D02*
X66700000Y-60400000D01*
X66150000Y-46700000D02*
X65950000Y-46500000D01*
X65950000Y-46500000D02*
X65950000Y-45800000D01*
X65950000Y-45800000D02*
X65100000Y-44950000D01*
X65100000Y-44950000D02*
X63550000Y-44950000D01*
X63550000Y-44950000D02*
X63050000Y-44450000D01*
X63050000Y-44450000D02*
X63050000Y-42400000D01*
X71260001Y-62515000D02*
X71260001Y-62060001D01*
X71260001Y-62060001D02*
X68050000Y-59750000D01*
X67550000Y-54950000D02*
X67450000Y-55050000D01*
X67450000Y-55050000D02*
X63045000Y-55050000D01*
X63045000Y-55050000D02*
X61800000Y-53805000D01*
X71260001Y-59975000D02*
X71175000Y-59975000D01*
X71175000Y-59975000D02*
X69500000Y-58300000D01*
X69400000Y-54100000D02*
X69105000Y-53805000D01*
X69105000Y-53805000D02*
X64340000Y-53805000D01*
X71260001Y-57435000D02*
X69465000Y-57435000D01*
X65105000Y-59650000D02*
X61800000Y-56345000D01*
X67250000Y-59650000D02*
X65105000Y-59650000D01*
X69465000Y-57435000D02*
X67250000Y-59650000D01*
X64340000Y-56345000D02*
X67205000Y-56345000D01*
X68655000Y-54895000D02*
X71260001Y-54895000D01*
X67205000Y-56345000D02*
X68655000Y-54895000D01*
X64340000Y-51265000D02*
X68115000Y-51265000D01*
X69205000Y-52355000D02*
X71260001Y-52355000D01*
X68115000Y-51265000D02*
X69205000Y-52355000D01*
X71260001Y-49815000D02*
X66560000Y-49815000D01*
X63065000Y-50000000D02*
X61800000Y-51265000D01*
X66375000Y-50000000D02*
X63065000Y-50000000D01*
X66560000Y-49815000D02*
X66375000Y-50000000D01*
M02*
