G04 #@! TF.FileFunction,Soldermask,Top*
%FSLAX46Y46*%
G04 Gerber Fmt 4.6, Leading zero omitted, Abs format (unit mm)*
G04 Created by KiCad (PCBNEW 4.0.6) date 04/01/17 00:44:48*
%MOMM*%
%LPD*%
G01*
G04 APERTURE LIST*
%ADD10C,0.100000*%
%ADD11R,2.100000X2.100000*%
%ADD12O,2.100000X2.100000*%
%ADD13C,2.101800*%
%ADD14C,1.085800*%
G04 APERTURE END LIST*
D10*
D11*
X65875000Y-31775000D03*
D12*
X63335000Y-31775000D03*
X60795000Y-31775000D03*
D13*
X56020001Y-34575000D03*
X56020001Y-37115000D03*
X56020001Y-39655000D03*
X56020001Y-42195000D03*
X56020001Y-44735000D03*
X56020001Y-47275000D03*
X56020001Y-49815000D03*
X56020001Y-52355000D03*
X56020001Y-54895000D03*
X56020001Y-57435000D03*
X56020001Y-59975000D03*
X56020001Y-62515000D03*
X56020001Y-65055000D03*
X71260001Y-65055000D03*
X71260001Y-62515000D03*
X71260001Y-59975000D03*
X71260001Y-57435000D03*
X71260001Y-54895000D03*
X71260001Y-52355000D03*
X71260001Y-49815000D03*
X71260001Y-47275000D03*
X71260001Y-44735000D03*
X71260001Y-42195000D03*
X71260001Y-39655000D03*
X71260001Y-37115000D03*
X71260001Y-34575000D03*
X71260001Y-32035000D03*
X56020001Y-32035000D03*
X58560001Y-65055000D03*
X61100001Y-65055000D03*
X63640001Y-65055000D03*
X66180001Y-65055000D03*
X68720001Y-65055000D03*
D11*
X61800000Y-36025000D03*
D12*
X61800000Y-38565000D03*
X64340000Y-38565000D03*
X61800000Y-41105000D03*
X64340000Y-41105000D03*
X61800000Y-43645000D03*
X64340000Y-43645000D03*
X64340000Y-46185000D03*
X64340000Y-48725000D03*
X61800000Y-51265000D03*
X64340000Y-51265000D03*
X61800000Y-53805000D03*
X64340000Y-53805000D03*
X61800000Y-56345000D03*
X64340000Y-56345000D03*
X61800000Y-58885000D03*
D14*
X60400000Y-55300000D03*
X60050000Y-43050000D03*
X57600000Y-41050000D03*
X58050000Y-45500000D03*
X58100000Y-56450000D03*
X59750000Y-53450000D03*
X59000000Y-41650000D03*
X59050000Y-43900000D03*
X58300000Y-62150000D03*
X59550000Y-35600000D03*
X66700000Y-60400000D03*
X66150000Y-46700000D03*
X63050000Y-42400000D03*
X68050000Y-59750000D03*
X67550000Y-54950000D03*
X69500000Y-58300000D03*
X69400000Y-54100000D03*
M02*
