G04 #@! TF.FileFunction,Copper,L2,Bot,Signal*
%FSLAX46Y46*%
G04 Gerber Fmt 4.6, Leading zero omitted, Abs format (unit mm)*
G04 Created by KiCad (PCBNEW 4.0.6) date 04/01/17 00:44:48*
%MOMM*%
%LPD*%
G01*
G04 APERTURE LIST*
%ADD10C,0.100000*%
%ADD11R,1.700000X1.700000*%
%ADD12O,1.700000X1.700000*%
%ADD13R,1.300000X0.700000*%
%ADD14R,0.700000X1.300000*%
%ADD15C,1.701800*%
%ADD16C,0.685800*%
%ADD17C,0.254000*%
%ADD18C,0.609600*%
G04 APERTURE END LIST*
D10*
D11*
X65875000Y-31775000D03*
D12*
X63335000Y-31775000D03*
X60795000Y-31775000D03*
D13*
X58150000Y-37375000D03*
X58150000Y-39275000D03*
X58375000Y-59650000D03*
X58375000Y-57750000D03*
D14*
X63650000Y-62950000D03*
X65550000Y-62950000D03*
D13*
X58450000Y-53400000D03*
X58450000Y-55300000D03*
X58375000Y-61175000D03*
X58375000Y-63075000D03*
X58150000Y-35575000D03*
X58150000Y-33675000D03*
D15*
X56020001Y-34575000D03*
X56020001Y-37115000D03*
X56020001Y-39655000D03*
X56020001Y-42195000D03*
X56020001Y-44735000D03*
X56020001Y-47275000D03*
X56020001Y-49815000D03*
X56020001Y-52355000D03*
X56020001Y-54895000D03*
X56020001Y-57435000D03*
X56020001Y-59975000D03*
X56020001Y-62515000D03*
X56020001Y-65055000D03*
X71260001Y-65055000D03*
X71260001Y-62515000D03*
X71260001Y-59975000D03*
X71260001Y-57435000D03*
X71260001Y-54895000D03*
X71260001Y-52355000D03*
X71260001Y-49815000D03*
X71260001Y-47275000D03*
X71260001Y-44735000D03*
X71260001Y-42195000D03*
X71260001Y-39655000D03*
X71260001Y-37115000D03*
X71260001Y-34575000D03*
X71260001Y-32035000D03*
X56020001Y-32035000D03*
X58560001Y-65055000D03*
X61100001Y-65055000D03*
X63640001Y-65055000D03*
X66180001Y-65055000D03*
X68720001Y-65055000D03*
D11*
X61800000Y-36025000D03*
D12*
X61800000Y-38565000D03*
X64340000Y-38565000D03*
X61800000Y-41105000D03*
X64340000Y-41105000D03*
X61800000Y-43645000D03*
X64340000Y-43645000D03*
X64340000Y-46185000D03*
X64340000Y-48725000D03*
X61800000Y-51265000D03*
X64340000Y-51265000D03*
X61800000Y-53805000D03*
X64340000Y-53805000D03*
X61800000Y-56345000D03*
X64340000Y-56345000D03*
X61800000Y-58885000D03*
D16*
X60400000Y-55300000D03*
X60050000Y-43050000D03*
X57600000Y-41050000D03*
X58050000Y-45500000D03*
X58100000Y-56450000D03*
X59750000Y-53450000D03*
X59000000Y-41650000D03*
X59050000Y-43900000D03*
X58300000Y-62150000D03*
X59550000Y-35600000D03*
X66700000Y-60400000D03*
X66150000Y-46700000D03*
X63050000Y-42400000D03*
X68050000Y-59750000D03*
X67550000Y-54950000D03*
X69500000Y-58300000D03*
X69400000Y-54100000D03*
D17*
X58450000Y-55300000D02*
X60400000Y-55300000D01*
X56020001Y-37115000D02*
X57940000Y-37165000D01*
X57940000Y-37165000D02*
X58150000Y-37375000D01*
X60050000Y-43050000D02*
X60150000Y-41150000D01*
X60100000Y-41100000D02*
X58225000Y-39225000D01*
X60150000Y-41150000D02*
X60100000Y-41100000D01*
X58150000Y-39275000D02*
X58225000Y-39225000D01*
X56020001Y-62515000D02*
X56020001Y-62229999D01*
X56020001Y-62229999D02*
X57225000Y-61025000D01*
X57225000Y-61025000D02*
X57225000Y-60575000D01*
X57225000Y-60575000D02*
X58150000Y-59650000D01*
X58150000Y-59650000D02*
X58375000Y-59650000D01*
X58375000Y-57750000D02*
X58275000Y-56625000D01*
X57600000Y-42850000D02*
X57600000Y-41050000D01*
X58050000Y-45500000D02*
X57600000Y-42850000D01*
X58275000Y-56625000D02*
X58100000Y-56450000D01*
D18*
X63640001Y-65055000D02*
X63640001Y-62959999D01*
X63640001Y-62959999D02*
X63650000Y-62950000D01*
D17*
X59750000Y-53450000D02*
X59700000Y-53400000D01*
X58450000Y-53400000D02*
X59700000Y-53400000D01*
X59000000Y-41650000D02*
X59000000Y-43850000D01*
X59000000Y-43850000D02*
X59050000Y-43900000D01*
X58375000Y-61175000D02*
X58375000Y-62075000D01*
X58375000Y-62075000D02*
X58300000Y-62150000D01*
X59050000Y-43900000D02*
X58950000Y-43800000D01*
X56020001Y-65055000D02*
X56395000Y-65055000D01*
X56395000Y-65055000D02*
X58375000Y-63075000D01*
X58150000Y-35575000D02*
X59525000Y-35575000D01*
X59525000Y-35575000D02*
X59550000Y-35600000D01*
X56020001Y-34575000D02*
X56475000Y-34575000D01*
X56475000Y-34575000D02*
X57375000Y-33675000D01*
X57375000Y-33675000D02*
X58150000Y-33675000D01*
X66700000Y-60400000D02*
X66150000Y-59850000D01*
X66150000Y-59850000D02*
X66150000Y-46700000D01*
X63050000Y-42400000D02*
X62850000Y-42150000D01*
X62850000Y-42150000D02*
X62005000Y-41105000D01*
X62005000Y-41105000D02*
X61800000Y-41105000D01*
X68050000Y-59750000D02*
X67550000Y-58350000D01*
X67550000Y-58350000D02*
X67550000Y-54950000D01*
X69500000Y-58300000D02*
X69400000Y-58200000D01*
X69400000Y-58200000D02*
X69400000Y-54100000D01*
G36*
X72054146Y-29377057D02*
X72371319Y-29475846D01*
X72659033Y-29632365D01*
X72910259Y-29839741D01*
X73117635Y-30090967D01*
X73274154Y-30378679D01*
X73372943Y-30695855D01*
X73409100Y-31052282D01*
X73409100Y-65421518D01*
X73372943Y-65777945D01*
X73274154Y-66095121D01*
X73117635Y-66382833D01*
X72910259Y-66634059D01*
X72659033Y-66841435D01*
X72371319Y-66997954D01*
X72054146Y-67096743D01*
X71697718Y-67132900D01*
X55728482Y-67132900D01*
X55372055Y-67096743D01*
X55054879Y-66997954D01*
X54767167Y-66841435D01*
X54515941Y-66634059D01*
X54308565Y-66382833D01*
X54152046Y-66095119D01*
X54053257Y-65777946D01*
X54017100Y-65421518D01*
X54017100Y-60198844D01*
X54889505Y-60198844D01*
X55061220Y-60614427D01*
X55378901Y-60932663D01*
X55794184Y-61105103D01*
X56243845Y-61105496D01*
X56659428Y-60933781D01*
X56818600Y-60774887D01*
X56818600Y-60856664D01*
X56277296Y-61397968D01*
X56245818Y-61384897D01*
X55796157Y-61384504D01*
X55380574Y-61556219D01*
X55062338Y-61873900D01*
X54889898Y-62289183D01*
X54889505Y-62738844D01*
X55061220Y-63154427D01*
X55378901Y-63472663D01*
X55794184Y-63645103D01*
X56243845Y-63645496D01*
X56659428Y-63473781D01*
X56977664Y-63156100D01*
X57150104Y-62740817D01*
X57150497Y-62291156D01*
X56978782Y-61875573D01*
X56963985Y-61860751D01*
X57440127Y-61384609D01*
X57440127Y-61525000D01*
X57459609Y-61628539D01*
X57520801Y-61723634D01*
X57614168Y-61787429D01*
X57725000Y-61809873D01*
X57767416Y-61809873D01*
X57677808Y-62025674D01*
X57677592Y-62273240D01*
X57746548Y-62440127D01*
X57725000Y-62440127D01*
X57621461Y-62459609D01*
X57526366Y-62520801D01*
X57462571Y-62614168D01*
X57440127Y-62725000D01*
X57440127Y-63425000D01*
X57441732Y-63433532D01*
X56719463Y-64155801D01*
X56661101Y-64097337D01*
X56245818Y-63924897D01*
X55796157Y-63924504D01*
X55380574Y-64096219D01*
X55062338Y-64413900D01*
X54889898Y-64829183D01*
X54889505Y-65278844D01*
X55061220Y-65694427D01*
X55378901Y-66012663D01*
X55794184Y-66185103D01*
X56243845Y-66185496D01*
X56659428Y-66013781D01*
X56977664Y-65696100D01*
X57150104Y-65280817D01*
X57150459Y-64874277D01*
X57596304Y-64428432D01*
X57429898Y-64829183D01*
X57429505Y-65278844D01*
X57601220Y-65694427D01*
X57918901Y-66012663D01*
X58334184Y-66185103D01*
X58783845Y-66185496D01*
X59199428Y-66013781D01*
X59517664Y-65696100D01*
X59690104Y-65280817D01*
X59690105Y-65278844D01*
X59969505Y-65278844D01*
X60141220Y-65694427D01*
X60458901Y-66012663D01*
X60874184Y-66185103D01*
X61323845Y-66185496D01*
X61739428Y-66013781D01*
X62057664Y-65696100D01*
X62230104Y-65280817D01*
X62230105Y-65278844D01*
X62509505Y-65278844D01*
X62681220Y-65694427D01*
X62998901Y-66012663D01*
X63414184Y-66185103D01*
X63863845Y-66185496D01*
X64279428Y-66013781D01*
X64597664Y-65696100D01*
X64770104Y-65280817D01*
X64770105Y-65278844D01*
X65049505Y-65278844D01*
X65221220Y-65694427D01*
X65538901Y-66012663D01*
X65954184Y-66185103D01*
X66403845Y-66185496D01*
X66819428Y-66013781D01*
X67137664Y-65696100D01*
X67310104Y-65280817D01*
X67310105Y-65278844D01*
X67589505Y-65278844D01*
X67761220Y-65694427D01*
X68078901Y-66012663D01*
X68494184Y-66185103D01*
X68943845Y-66185496D01*
X69359428Y-66013781D01*
X69677664Y-65696100D01*
X69850104Y-65280817D01*
X69850105Y-65278844D01*
X70129505Y-65278844D01*
X70301220Y-65694427D01*
X70618901Y-66012663D01*
X71034184Y-66185103D01*
X71483845Y-66185496D01*
X71899428Y-66013781D01*
X72217664Y-65696100D01*
X72390104Y-65280817D01*
X72390497Y-64831156D01*
X72218782Y-64415573D01*
X71901101Y-64097337D01*
X71485818Y-63924897D01*
X71036157Y-63924504D01*
X70620574Y-64096219D01*
X70302338Y-64413900D01*
X70129898Y-64829183D01*
X70129505Y-65278844D01*
X69850105Y-65278844D01*
X69850497Y-64831156D01*
X69678782Y-64415573D01*
X69361101Y-64097337D01*
X68945818Y-63924897D01*
X68496157Y-63924504D01*
X68080574Y-64096219D01*
X67762338Y-64413900D01*
X67589898Y-64829183D01*
X67589505Y-65278844D01*
X67310105Y-65278844D01*
X67310497Y-64831156D01*
X67138782Y-64415573D01*
X66821101Y-64097337D01*
X66405818Y-63924897D01*
X66111851Y-63924640D01*
X66115820Y-63922996D01*
X66222996Y-63815819D01*
X66281000Y-63675785D01*
X66281000Y-63172250D01*
X66185750Y-63077000D01*
X65677000Y-63077000D01*
X65677000Y-63885750D01*
X65772250Y-63981000D01*
X65819426Y-63981000D01*
X65540574Y-64096219D01*
X65222338Y-64413900D01*
X65049898Y-64829183D01*
X65049505Y-65278844D01*
X64770105Y-65278844D01*
X64770497Y-64831156D01*
X64598782Y-64415573D01*
X64281101Y-64097337D01*
X64224201Y-64073710D01*
X64224201Y-63766780D01*
X64262429Y-63710832D01*
X64284873Y-63600000D01*
X64284873Y-63172250D01*
X64819000Y-63172250D01*
X64819000Y-63675785D01*
X64877004Y-63815819D01*
X64984180Y-63922996D01*
X65124214Y-63981000D01*
X65327750Y-63981000D01*
X65423000Y-63885750D01*
X65423000Y-63077000D01*
X64914250Y-63077000D01*
X64819000Y-63172250D01*
X64284873Y-63172250D01*
X64284873Y-62300000D01*
X64270614Y-62224215D01*
X64819000Y-62224215D01*
X64819000Y-62727750D01*
X64914250Y-62823000D01*
X65423000Y-62823000D01*
X65423000Y-62014250D01*
X65677000Y-62014250D01*
X65677000Y-62823000D01*
X66185750Y-62823000D01*
X66269906Y-62738844D01*
X70129505Y-62738844D01*
X70301220Y-63154427D01*
X70618901Y-63472663D01*
X71034184Y-63645103D01*
X71483845Y-63645496D01*
X71899428Y-63473781D01*
X72217664Y-63156100D01*
X72390104Y-62740817D01*
X72390497Y-62291156D01*
X72218782Y-61875573D01*
X71901101Y-61557337D01*
X71485818Y-61384897D01*
X71036157Y-61384504D01*
X70620574Y-61556219D01*
X70302338Y-61873900D01*
X70129898Y-62289183D01*
X70129505Y-62738844D01*
X66269906Y-62738844D01*
X66281000Y-62727750D01*
X66281000Y-62224215D01*
X66222996Y-62084181D01*
X66115820Y-61977004D01*
X65975786Y-61919000D01*
X65772250Y-61919000D01*
X65677000Y-62014250D01*
X65423000Y-62014250D01*
X65327750Y-61919000D01*
X65124214Y-61919000D01*
X64984180Y-61977004D01*
X64877004Y-62084181D01*
X64819000Y-62224215D01*
X64270614Y-62224215D01*
X64265391Y-62196461D01*
X64204199Y-62101366D01*
X64110832Y-62037571D01*
X64000000Y-62015127D01*
X63300000Y-62015127D01*
X63196461Y-62034609D01*
X63101366Y-62095801D01*
X63037571Y-62189168D01*
X63015127Y-62300000D01*
X63015127Y-63600000D01*
X63034609Y-63703539D01*
X63055801Y-63736472D01*
X63055801Y-64073400D01*
X63000574Y-64096219D01*
X62682338Y-64413900D01*
X62509898Y-64829183D01*
X62509505Y-65278844D01*
X62230105Y-65278844D01*
X62230497Y-64831156D01*
X62058782Y-64415573D01*
X61741101Y-64097337D01*
X61325818Y-63924897D01*
X60876157Y-63924504D01*
X60460574Y-64096219D01*
X60142338Y-64413900D01*
X59969898Y-64829183D01*
X59969505Y-65278844D01*
X59690105Y-65278844D01*
X59690497Y-64831156D01*
X59518782Y-64415573D01*
X59201101Y-64097337D01*
X58785818Y-63924897D01*
X58336157Y-63924504D01*
X57934110Y-64090626D01*
X58314863Y-63709873D01*
X59025000Y-63709873D01*
X59128539Y-63690391D01*
X59223634Y-63629199D01*
X59287429Y-63535832D01*
X59309873Y-63425000D01*
X59309873Y-62725000D01*
X59290391Y-62621461D01*
X59229199Y-62526366D01*
X59135832Y-62462571D01*
X59025000Y-62440127D01*
X58853346Y-62440127D01*
X58922192Y-62274326D01*
X58922408Y-62026760D01*
X58832792Y-61809873D01*
X59025000Y-61809873D01*
X59128539Y-61790391D01*
X59223634Y-61729199D01*
X59287429Y-61635832D01*
X59309873Y-61525000D01*
X59309873Y-60825000D01*
X59290391Y-60721461D01*
X59229199Y-60626366D01*
X59135832Y-60562571D01*
X59025000Y-60540127D01*
X57834609Y-60540127D01*
X58089864Y-60284873D01*
X59025000Y-60284873D01*
X59128539Y-60265391D01*
X59223634Y-60204199D01*
X59287429Y-60110832D01*
X59309873Y-60000000D01*
X59309873Y-59300000D01*
X59291430Y-59201980D01*
X60610511Y-59201980D01*
X60734755Y-59501964D01*
X61051944Y-59862652D01*
X61483018Y-60074501D01*
X61673000Y-60014193D01*
X61673000Y-59012000D01*
X61927000Y-59012000D01*
X61927000Y-60014193D01*
X62116982Y-60074501D01*
X62548056Y-59862652D01*
X62865245Y-59501964D01*
X62989489Y-59201980D01*
X62928627Y-59012000D01*
X61927000Y-59012000D01*
X61673000Y-59012000D01*
X60671373Y-59012000D01*
X60610511Y-59201980D01*
X59291430Y-59201980D01*
X59290391Y-59196461D01*
X59229199Y-59101366D01*
X59135832Y-59037571D01*
X59025000Y-59015127D01*
X57725000Y-59015127D01*
X57621461Y-59034609D01*
X57526366Y-59095801D01*
X57462571Y-59189168D01*
X57440127Y-59300000D01*
X57440127Y-59785136D01*
X57150214Y-60075050D01*
X57150497Y-59751156D01*
X56978782Y-59335573D01*
X56661101Y-59017337D01*
X56245818Y-58844897D01*
X55796157Y-58844504D01*
X55380574Y-59016219D01*
X55062338Y-59333900D01*
X54889898Y-59749183D01*
X54889505Y-60198844D01*
X54017100Y-60198844D01*
X54017100Y-58568020D01*
X60610511Y-58568020D01*
X60671373Y-58758000D01*
X61673000Y-58758000D01*
X61673000Y-57755807D01*
X61927000Y-57755807D01*
X61927000Y-58758000D01*
X62928627Y-58758000D01*
X62989489Y-58568020D01*
X62865245Y-58268036D01*
X62548056Y-57907348D01*
X62116982Y-57695499D01*
X61927000Y-57755807D01*
X61673000Y-57755807D01*
X61483018Y-57695499D01*
X61051944Y-57907348D01*
X60734755Y-58268036D01*
X60610511Y-58568020D01*
X54017100Y-58568020D01*
X54017100Y-57658844D01*
X54889505Y-57658844D01*
X55061220Y-58074427D01*
X55378901Y-58392663D01*
X55794184Y-58565103D01*
X56243845Y-58565496D01*
X56659428Y-58393781D01*
X56977664Y-58076100D01*
X57150104Y-57660817D01*
X57150331Y-57400000D01*
X57440127Y-57400000D01*
X57440127Y-58100000D01*
X57459609Y-58203539D01*
X57520801Y-58298634D01*
X57614168Y-58362429D01*
X57725000Y-58384873D01*
X59025000Y-58384873D01*
X59128539Y-58365391D01*
X59223634Y-58304199D01*
X59287429Y-58210832D01*
X59309873Y-58100000D01*
X59309873Y-57400000D01*
X59290391Y-57296461D01*
X59229199Y-57201366D01*
X59135832Y-57137571D01*
X59025000Y-57115127D01*
X58726569Y-57115127D01*
X58686202Y-56660999D01*
X58722192Y-56574326D01*
X58722408Y-56326760D01*
X58627868Y-56097956D01*
X58465070Y-55934873D01*
X59100000Y-55934873D01*
X59203539Y-55915391D01*
X59298634Y-55854199D01*
X59362429Y-55760832D01*
X59373452Y-55706400D01*
X59926393Y-55706400D01*
X60047035Y-55827253D01*
X60275674Y-55922192D01*
X60523240Y-55922408D01*
X60752044Y-55827868D01*
X60869611Y-55710506D01*
X60734444Y-55912797D01*
X60648474Y-56345000D01*
X60734444Y-56777203D01*
X60979268Y-57143606D01*
X61345671Y-57388430D01*
X61777874Y-57474400D01*
X61822126Y-57474400D01*
X62254329Y-57388430D01*
X62620732Y-57143606D01*
X62865556Y-56777203D01*
X62951526Y-56345000D01*
X63188474Y-56345000D01*
X63274444Y-56777203D01*
X63519268Y-57143606D01*
X63885671Y-57388430D01*
X64317874Y-57474400D01*
X64362126Y-57474400D01*
X64794329Y-57388430D01*
X65160732Y-57143606D01*
X65405556Y-56777203D01*
X65491526Y-56345000D01*
X65405556Y-55912797D01*
X65160732Y-55546394D01*
X64794329Y-55301570D01*
X64362126Y-55215600D01*
X64317874Y-55215600D01*
X63885671Y-55301570D01*
X63519268Y-55546394D01*
X63274444Y-55912797D01*
X63188474Y-56345000D01*
X62951526Y-56345000D01*
X62865556Y-55912797D01*
X62620732Y-55546394D01*
X62254329Y-55301570D01*
X61822126Y-55215600D01*
X61777874Y-55215600D01*
X61345671Y-55301570D01*
X60979268Y-55546394D01*
X60958761Y-55577084D01*
X61022192Y-55424326D01*
X61022408Y-55176760D01*
X60927868Y-54947956D01*
X60752965Y-54772747D01*
X60524326Y-54677808D01*
X60276760Y-54677592D01*
X60047956Y-54772132D01*
X59926275Y-54893600D01*
X59374261Y-54893600D01*
X59365391Y-54846461D01*
X59304199Y-54751366D01*
X59210832Y-54687571D01*
X59100000Y-54665127D01*
X57800000Y-54665127D01*
X57696461Y-54684609D01*
X57601366Y-54745801D01*
X57537571Y-54839168D01*
X57515127Y-54950000D01*
X57515127Y-55650000D01*
X57534609Y-55753539D01*
X57595801Y-55848634D01*
X57689168Y-55912429D01*
X57746122Y-55923963D01*
X57572747Y-56097035D01*
X57477808Y-56325674D01*
X57477592Y-56573240D01*
X57572132Y-56802044D01*
X57747035Y-56977253D01*
X57904106Y-57042475D01*
X57910564Y-57115127D01*
X57725000Y-57115127D01*
X57621461Y-57134609D01*
X57526366Y-57195801D01*
X57462571Y-57289168D01*
X57440127Y-57400000D01*
X57150331Y-57400000D01*
X57150497Y-57211156D01*
X56978782Y-56795573D01*
X56661101Y-56477337D01*
X56245818Y-56304897D01*
X55796157Y-56304504D01*
X55380574Y-56476219D01*
X55062338Y-56793900D01*
X54889898Y-57209183D01*
X54889505Y-57658844D01*
X54017100Y-57658844D01*
X54017100Y-55118844D01*
X54889505Y-55118844D01*
X55061220Y-55534427D01*
X55378901Y-55852663D01*
X55794184Y-56025103D01*
X56243845Y-56025496D01*
X56659428Y-55853781D01*
X56977664Y-55536100D01*
X57150104Y-55120817D01*
X57150497Y-54671156D01*
X56978782Y-54255573D01*
X56661101Y-53937337D01*
X56245818Y-53764897D01*
X55796157Y-53764504D01*
X55380574Y-53936219D01*
X55062338Y-54253900D01*
X54889898Y-54669183D01*
X54889505Y-55118844D01*
X54017100Y-55118844D01*
X54017100Y-52578844D01*
X54889505Y-52578844D01*
X55061220Y-52994427D01*
X55378901Y-53312663D01*
X55794184Y-53485103D01*
X56243845Y-53485496D01*
X56659428Y-53313781D01*
X56923669Y-53050000D01*
X57515127Y-53050000D01*
X57515127Y-53750000D01*
X57534609Y-53853539D01*
X57595801Y-53948634D01*
X57689168Y-54012429D01*
X57800000Y-54034873D01*
X59100000Y-54034873D01*
X59203539Y-54015391D01*
X59298634Y-53954199D01*
X59329267Y-53909366D01*
X59397035Y-53977253D01*
X59625674Y-54072192D01*
X59873240Y-54072408D01*
X60102044Y-53977868D01*
X60275214Y-53805000D01*
X60648474Y-53805000D01*
X60734444Y-54237203D01*
X60979268Y-54603606D01*
X61345671Y-54848430D01*
X61777874Y-54934400D01*
X61822126Y-54934400D01*
X62254329Y-54848430D01*
X62620732Y-54603606D01*
X62865556Y-54237203D01*
X62951526Y-53805000D01*
X63188474Y-53805000D01*
X63274444Y-54237203D01*
X63519268Y-54603606D01*
X63885671Y-54848430D01*
X64317874Y-54934400D01*
X64362126Y-54934400D01*
X64794329Y-54848430D01*
X65160732Y-54603606D01*
X65405556Y-54237203D01*
X65491526Y-53805000D01*
X65405556Y-53372797D01*
X65160732Y-53006394D01*
X64794329Y-52761570D01*
X64362126Y-52675600D01*
X64317874Y-52675600D01*
X63885671Y-52761570D01*
X63519268Y-53006394D01*
X63274444Y-53372797D01*
X63188474Y-53805000D01*
X62951526Y-53805000D01*
X62865556Y-53372797D01*
X62620732Y-53006394D01*
X62254329Y-52761570D01*
X61822126Y-52675600D01*
X61777874Y-52675600D01*
X61345671Y-52761570D01*
X60979268Y-53006394D01*
X60734444Y-53372797D01*
X60648474Y-53805000D01*
X60275214Y-53805000D01*
X60277253Y-53802965D01*
X60372192Y-53574326D01*
X60372408Y-53326760D01*
X60277868Y-53097956D01*
X60102965Y-52922747D01*
X59874326Y-52827808D01*
X59626760Y-52827592D01*
X59397956Y-52922132D01*
X59366687Y-52953347D01*
X59365391Y-52946461D01*
X59304199Y-52851366D01*
X59210832Y-52787571D01*
X59100000Y-52765127D01*
X57800000Y-52765127D01*
X57696461Y-52784609D01*
X57601366Y-52845801D01*
X57537571Y-52939168D01*
X57515127Y-53050000D01*
X56923669Y-53050000D01*
X56977664Y-52996100D01*
X57150104Y-52580817D01*
X57150497Y-52131156D01*
X56978782Y-51715573D01*
X56661101Y-51397337D01*
X56342398Y-51265000D01*
X60648474Y-51265000D01*
X60734444Y-51697203D01*
X60979268Y-52063606D01*
X61345671Y-52308430D01*
X61777874Y-52394400D01*
X61822126Y-52394400D01*
X62254329Y-52308430D01*
X62620732Y-52063606D01*
X62865556Y-51697203D01*
X62951526Y-51265000D01*
X63188474Y-51265000D01*
X63274444Y-51697203D01*
X63519268Y-52063606D01*
X63885671Y-52308430D01*
X64317874Y-52394400D01*
X64362126Y-52394400D01*
X64794329Y-52308430D01*
X65160732Y-52063606D01*
X65405556Y-51697203D01*
X65491526Y-51265000D01*
X65405556Y-50832797D01*
X65160732Y-50466394D01*
X64794329Y-50221570D01*
X64362126Y-50135600D01*
X64317874Y-50135600D01*
X63885671Y-50221570D01*
X63519268Y-50466394D01*
X63274444Y-50832797D01*
X63188474Y-51265000D01*
X62951526Y-51265000D01*
X62865556Y-50832797D01*
X62620732Y-50466394D01*
X62254329Y-50221570D01*
X61822126Y-50135600D01*
X61777874Y-50135600D01*
X61345671Y-50221570D01*
X60979268Y-50466394D01*
X60734444Y-50832797D01*
X60648474Y-51265000D01*
X56342398Y-51265000D01*
X56245818Y-51224897D01*
X55796157Y-51224504D01*
X55380574Y-51396219D01*
X55062338Y-51713900D01*
X54889898Y-52129183D01*
X54889505Y-52578844D01*
X54017100Y-52578844D01*
X54017100Y-50038844D01*
X54889505Y-50038844D01*
X55061220Y-50454427D01*
X55378901Y-50772663D01*
X55794184Y-50945103D01*
X56243845Y-50945496D01*
X56659428Y-50773781D01*
X56977664Y-50456100D01*
X57150104Y-50040817D01*
X57150497Y-49591156D01*
X56978782Y-49175573D01*
X56661101Y-48857337D01*
X56342398Y-48725000D01*
X63188474Y-48725000D01*
X63274444Y-49157203D01*
X63519268Y-49523606D01*
X63885671Y-49768430D01*
X64317874Y-49854400D01*
X64362126Y-49854400D01*
X64794329Y-49768430D01*
X65160732Y-49523606D01*
X65405556Y-49157203D01*
X65491526Y-48725000D01*
X65405556Y-48292797D01*
X65160732Y-47926394D01*
X64794329Y-47681570D01*
X64362126Y-47595600D01*
X64317874Y-47595600D01*
X63885671Y-47681570D01*
X63519268Y-47926394D01*
X63274444Y-48292797D01*
X63188474Y-48725000D01*
X56342398Y-48725000D01*
X56245818Y-48684897D01*
X55796157Y-48684504D01*
X55380574Y-48856219D01*
X55062338Y-49173900D01*
X54889898Y-49589183D01*
X54889505Y-50038844D01*
X54017100Y-50038844D01*
X54017100Y-47498844D01*
X54889505Y-47498844D01*
X55061220Y-47914427D01*
X55378901Y-48232663D01*
X55794184Y-48405103D01*
X56243845Y-48405496D01*
X56659428Y-48233781D01*
X56977664Y-47916100D01*
X57150104Y-47500817D01*
X57150497Y-47051156D01*
X56978782Y-46635573D01*
X56845422Y-46501980D01*
X63150511Y-46501980D01*
X63274755Y-46801964D01*
X63591944Y-47162652D01*
X64023018Y-47374501D01*
X64213000Y-47314193D01*
X64213000Y-46312000D01*
X64467000Y-46312000D01*
X64467000Y-47314193D01*
X64656982Y-47374501D01*
X65088056Y-47162652D01*
X65386534Y-46823240D01*
X65527592Y-46823240D01*
X65622132Y-47052044D01*
X65743600Y-47173725D01*
X65743600Y-59850000D01*
X65774535Y-60005523D01*
X65840028Y-60103539D01*
X65862632Y-60137368D01*
X66077741Y-60352477D01*
X66077592Y-60523240D01*
X66172132Y-60752044D01*
X66347035Y-60927253D01*
X66575674Y-61022192D01*
X66823240Y-61022408D01*
X67052044Y-60927868D01*
X67227253Y-60752965D01*
X67322192Y-60524326D01*
X67322408Y-60276760D01*
X67227868Y-60047956D01*
X67052965Y-59872747D01*
X66824326Y-59777808D01*
X66652394Y-59777658D01*
X66556400Y-59681664D01*
X66556400Y-55073240D01*
X66927592Y-55073240D01*
X67022132Y-55302044D01*
X67143600Y-55423725D01*
X67143600Y-58350000D01*
X67157136Y-58418050D01*
X67167276Y-58486687D01*
X67506432Y-59436325D01*
X67427808Y-59625674D01*
X67427592Y-59873240D01*
X67522132Y-60102044D01*
X67697035Y-60277253D01*
X67925674Y-60372192D01*
X68173240Y-60372408D01*
X68402044Y-60277868D01*
X68481206Y-60198844D01*
X70129505Y-60198844D01*
X70301220Y-60614427D01*
X70618901Y-60932663D01*
X71034184Y-61105103D01*
X71483845Y-61105496D01*
X71899428Y-60933781D01*
X72217664Y-60616100D01*
X72390104Y-60200817D01*
X72390497Y-59751156D01*
X72218782Y-59335573D01*
X71901101Y-59017337D01*
X71485818Y-58844897D01*
X71036157Y-58844504D01*
X70620574Y-59016219D01*
X70302338Y-59333900D01*
X70129898Y-59749183D01*
X70129505Y-60198844D01*
X68481206Y-60198844D01*
X68577253Y-60102965D01*
X68672192Y-59874326D01*
X68672408Y-59626760D01*
X68577868Y-59397956D01*
X68402965Y-59222747D01*
X68274130Y-59169250D01*
X67956400Y-58279606D01*
X67956400Y-55423607D01*
X68077253Y-55302965D01*
X68172192Y-55074326D01*
X68172408Y-54826760D01*
X68077868Y-54597956D01*
X67902965Y-54422747D01*
X67674326Y-54327808D01*
X67426760Y-54327592D01*
X67197956Y-54422132D01*
X67022747Y-54597035D01*
X66927808Y-54825674D01*
X66927592Y-55073240D01*
X66556400Y-55073240D01*
X66556400Y-54223240D01*
X68777592Y-54223240D01*
X68872132Y-54452044D01*
X68993600Y-54573725D01*
X68993600Y-57926218D01*
X68972747Y-57947035D01*
X68877808Y-58175674D01*
X68877592Y-58423240D01*
X68972132Y-58652044D01*
X69147035Y-58827253D01*
X69375674Y-58922192D01*
X69623240Y-58922408D01*
X69852044Y-58827868D01*
X70027253Y-58652965D01*
X70122192Y-58424326D01*
X70122408Y-58176760D01*
X70027868Y-57947956D01*
X69852965Y-57772747D01*
X69806400Y-57753412D01*
X69806400Y-57658844D01*
X70129505Y-57658844D01*
X70301220Y-58074427D01*
X70618901Y-58392663D01*
X71034184Y-58565103D01*
X71483845Y-58565496D01*
X71899428Y-58393781D01*
X72217664Y-58076100D01*
X72390104Y-57660817D01*
X72390497Y-57211156D01*
X72218782Y-56795573D01*
X71901101Y-56477337D01*
X71485818Y-56304897D01*
X71036157Y-56304504D01*
X70620574Y-56476219D01*
X70302338Y-56793900D01*
X70129898Y-57209183D01*
X70129505Y-57658844D01*
X69806400Y-57658844D01*
X69806400Y-55118844D01*
X70129505Y-55118844D01*
X70301220Y-55534427D01*
X70618901Y-55852663D01*
X71034184Y-56025103D01*
X71483845Y-56025496D01*
X71899428Y-55853781D01*
X72217664Y-55536100D01*
X72390104Y-55120817D01*
X72390497Y-54671156D01*
X72218782Y-54255573D01*
X71901101Y-53937337D01*
X71485818Y-53764897D01*
X71036157Y-53764504D01*
X70620574Y-53936219D01*
X70302338Y-54253900D01*
X70129898Y-54669183D01*
X70129505Y-55118844D01*
X69806400Y-55118844D01*
X69806400Y-54573607D01*
X69927253Y-54452965D01*
X70022192Y-54224326D01*
X70022408Y-53976760D01*
X69927868Y-53747956D01*
X69752965Y-53572747D01*
X69524326Y-53477808D01*
X69276760Y-53477592D01*
X69047956Y-53572132D01*
X68872747Y-53747035D01*
X68777808Y-53975674D01*
X68777592Y-54223240D01*
X66556400Y-54223240D01*
X66556400Y-52578844D01*
X70129505Y-52578844D01*
X70301220Y-52994427D01*
X70618901Y-53312663D01*
X71034184Y-53485103D01*
X71483845Y-53485496D01*
X71899428Y-53313781D01*
X72217664Y-52996100D01*
X72390104Y-52580817D01*
X72390497Y-52131156D01*
X72218782Y-51715573D01*
X71901101Y-51397337D01*
X71485818Y-51224897D01*
X71036157Y-51224504D01*
X70620574Y-51396219D01*
X70302338Y-51713900D01*
X70129898Y-52129183D01*
X70129505Y-52578844D01*
X66556400Y-52578844D01*
X66556400Y-50038844D01*
X70129505Y-50038844D01*
X70301220Y-50454427D01*
X70618901Y-50772663D01*
X71034184Y-50945103D01*
X71483845Y-50945496D01*
X71899428Y-50773781D01*
X72217664Y-50456100D01*
X72390104Y-50040817D01*
X72390497Y-49591156D01*
X72218782Y-49175573D01*
X71901101Y-48857337D01*
X71485818Y-48684897D01*
X71036157Y-48684504D01*
X70620574Y-48856219D01*
X70302338Y-49173900D01*
X70129898Y-49589183D01*
X70129505Y-50038844D01*
X66556400Y-50038844D01*
X66556400Y-47498844D01*
X70129505Y-47498844D01*
X70301220Y-47914427D01*
X70618901Y-48232663D01*
X71034184Y-48405103D01*
X71483845Y-48405496D01*
X71899428Y-48233781D01*
X72217664Y-47916100D01*
X72390104Y-47500817D01*
X72390497Y-47051156D01*
X72218782Y-46635573D01*
X71901101Y-46317337D01*
X71485818Y-46144897D01*
X71036157Y-46144504D01*
X70620574Y-46316219D01*
X70302338Y-46633900D01*
X70129898Y-47049183D01*
X70129505Y-47498844D01*
X66556400Y-47498844D01*
X66556400Y-47173607D01*
X66677253Y-47052965D01*
X66772192Y-46824326D01*
X66772408Y-46576760D01*
X66677868Y-46347956D01*
X66502965Y-46172747D01*
X66274326Y-46077808D01*
X66026760Y-46077592D01*
X65797956Y-46172132D01*
X65622747Y-46347035D01*
X65527808Y-46575674D01*
X65527592Y-46823240D01*
X65386534Y-46823240D01*
X65405245Y-46801964D01*
X65529489Y-46501980D01*
X65468627Y-46312000D01*
X64467000Y-46312000D01*
X64213000Y-46312000D01*
X63211373Y-46312000D01*
X63150511Y-46501980D01*
X56845422Y-46501980D01*
X56661101Y-46317337D01*
X56245818Y-46144897D01*
X55796157Y-46144504D01*
X55380574Y-46316219D01*
X55062338Y-46633900D01*
X54889898Y-47049183D01*
X54889505Y-47498844D01*
X54017100Y-47498844D01*
X54017100Y-44958844D01*
X54889505Y-44958844D01*
X55061220Y-45374427D01*
X55378901Y-45692663D01*
X55794184Y-45865103D01*
X56243845Y-45865496D01*
X56659428Y-45693781D01*
X56977664Y-45376100D01*
X57150104Y-44960817D01*
X57150497Y-44511156D01*
X56978782Y-44095573D01*
X56661101Y-43777337D01*
X56245818Y-43604897D01*
X55796157Y-43604504D01*
X55380574Y-43776219D01*
X55062338Y-44093900D01*
X54889898Y-44509183D01*
X54889505Y-44958844D01*
X54017100Y-44958844D01*
X54017100Y-42418844D01*
X54889505Y-42418844D01*
X55061220Y-42834427D01*
X55378901Y-43152663D01*
X55794184Y-43325103D01*
X56243845Y-43325496D01*
X56659428Y-43153781D01*
X56977664Y-42836100D01*
X57150104Y-42420817D01*
X57150497Y-41971156D01*
X56978782Y-41555573D01*
X56661101Y-41237337D01*
X56506738Y-41173240D01*
X56977592Y-41173240D01*
X57072132Y-41402044D01*
X57193600Y-41523725D01*
X57193600Y-42850000D01*
X57200302Y-42883696D01*
X57199336Y-42918037D01*
X57569859Y-45100005D01*
X57522747Y-45147035D01*
X57427808Y-45375674D01*
X57427592Y-45623240D01*
X57522132Y-45852044D01*
X57697035Y-46027253D01*
X57925674Y-46122192D01*
X58173240Y-46122408D01*
X58402044Y-46027868D01*
X58562171Y-45868020D01*
X63150511Y-45868020D01*
X63211373Y-46058000D01*
X64213000Y-46058000D01*
X64213000Y-45055807D01*
X64467000Y-45055807D01*
X64467000Y-46058000D01*
X65468627Y-46058000D01*
X65529489Y-45868020D01*
X65405245Y-45568036D01*
X65088056Y-45207348D01*
X64656982Y-44995499D01*
X64467000Y-45055807D01*
X64213000Y-45055807D01*
X64023018Y-44995499D01*
X63591944Y-45207348D01*
X63274755Y-45568036D01*
X63150511Y-45868020D01*
X58562171Y-45868020D01*
X58577253Y-45852965D01*
X58672192Y-45624326D01*
X58672408Y-45376760D01*
X58577868Y-45147956D01*
X58402965Y-44972747D01*
X58370387Y-44959219D01*
X58370324Y-44958844D01*
X70129505Y-44958844D01*
X70301220Y-45374427D01*
X70618901Y-45692663D01*
X71034184Y-45865103D01*
X71483845Y-45865496D01*
X71899428Y-45693781D01*
X72217664Y-45376100D01*
X72390104Y-44960817D01*
X72390497Y-44511156D01*
X72218782Y-44095573D01*
X71901101Y-43777337D01*
X71485818Y-43604897D01*
X71036157Y-43604504D01*
X70620574Y-43776219D01*
X70302338Y-44093900D01*
X70129898Y-44509183D01*
X70129505Y-44958844D01*
X58370324Y-44958844D01*
X58006400Y-42815742D01*
X58006400Y-41773240D01*
X58377592Y-41773240D01*
X58472132Y-42002044D01*
X58593600Y-42123725D01*
X58593600Y-43476306D01*
X58522747Y-43547035D01*
X58427808Y-43775674D01*
X58427592Y-44023240D01*
X58522132Y-44252044D01*
X58697035Y-44427253D01*
X58925674Y-44522192D01*
X59173240Y-44522408D01*
X59402044Y-44427868D01*
X59577253Y-44252965D01*
X59672192Y-44024326D01*
X59672408Y-43776760D01*
X59577868Y-43547956D01*
X59406400Y-43376188D01*
X59406400Y-42123607D01*
X59527253Y-42002965D01*
X59622192Y-41774326D01*
X59622408Y-41526760D01*
X59527868Y-41297956D01*
X59352965Y-41122747D01*
X59124326Y-41027808D01*
X58876760Y-41027592D01*
X58647956Y-41122132D01*
X58472747Y-41297035D01*
X58377808Y-41525674D01*
X58377592Y-41773240D01*
X58006400Y-41773240D01*
X58006400Y-41523607D01*
X58127253Y-41402965D01*
X58222192Y-41174326D01*
X58222408Y-40926760D01*
X58127868Y-40697956D01*
X57952965Y-40522747D01*
X57724326Y-40427808D01*
X57476760Y-40427592D01*
X57247956Y-40522132D01*
X57072747Y-40697035D01*
X56977808Y-40925674D01*
X56977592Y-41173240D01*
X56506738Y-41173240D01*
X56245818Y-41064897D01*
X55796157Y-41064504D01*
X55380574Y-41236219D01*
X55062338Y-41553900D01*
X54889898Y-41969183D01*
X54889505Y-42418844D01*
X54017100Y-42418844D01*
X54017100Y-39878844D01*
X54889505Y-39878844D01*
X55061220Y-40294427D01*
X55378901Y-40612663D01*
X55794184Y-40785103D01*
X56243845Y-40785496D01*
X56659428Y-40613781D01*
X56977664Y-40296100D01*
X57150104Y-39880817D01*
X57150497Y-39431156D01*
X56978782Y-39015573D01*
X56888367Y-38925000D01*
X57215127Y-38925000D01*
X57215127Y-39625000D01*
X57234609Y-39728539D01*
X57295801Y-39823634D01*
X57389168Y-39887429D01*
X57500000Y-39909873D01*
X58335137Y-39909873D01*
X59734649Y-41309385D01*
X59669316Y-42550722D01*
X59522747Y-42697035D01*
X59427808Y-42925674D01*
X59427592Y-43173240D01*
X59522132Y-43402044D01*
X59697035Y-43577253D01*
X59925674Y-43672192D01*
X60173240Y-43672408D01*
X60402044Y-43577868D01*
X60577253Y-43402965D01*
X60672192Y-43174326D01*
X60672408Y-42926760D01*
X60577868Y-42697956D01*
X60480618Y-42600536D01*
X60555838Y-41171360D01*
X60554285Y-41160633D01*
X60556400Y-41150000D01*
X60547449Y-41105000D01*
X60648474Y-41105000D01*
X60734444Y-41537203D01*
X60979268Y-41903606D01*
X61345671Y-42148430D01*
X61777874Y-42234400D01*
X61822126Y-42234400D01*
X62254329Y-42148430D01*
X62300919Y-42117300D01*
X62428206Y-42274715D01*
X62427808Y-42275674D01*
X62427592Y-42523240D01*
X62522132Y-42752044D01*
X62607474Y-42837535D01*
X62254329Y-42601570D01*
X61822126Y-42515600D01*
X61777874Y-42515600D01*
X61345671Y-42601570D01*
X60979268Y-42846394D01*
X60734444Y-43212797D01*
X60648474Y-43645000D01*
X60734444Y-44077203D01*
X60979268Y-44443606D01*
X61345671Y-44688430D01*
X61777874Y-44774400D01*
X61822126Y-44774400D01*
X62254329Y-44688430D01*
X62620732Y-44443606D01*
X62865556Y-44077203D01*
X62951526Y-43645000D01*
X63188474Y-43645000D01*
X63274444Y-44077203D01*
X63519268Y-44443606D01*
X63885671Y-44688430D01*
X64317874Y-44774400D01*
X64362126Y-44774400D01*
X64794329Y-44688430D01*
X65160732Y-44443606D01*
X65405556Y-44077203D01*
X65491526Y-43645000D01*
X65405556Y-43212797D01*
X65160732Y-42846394D01*
X64794329Y-42601570D01*
X64362126Y-42515600D01*
X64317874Y-42515600D01*
X63885671Y-42601570D01*
X63519268Y-42846394D01*
X63274444Y-43212797D01*
X63188474Y-43645000D01*
X62951526Y-43645000D01*
X62865556Y-43212797D01*
X62629669Y-42859769D01*
X62697035Y-42927253D01*
X62925674Y-43022192D01*
X63173240Y-43022408D01*
X63402044Y-42927868D01*
X63577253Y-42752965D01*
X63672192Y-42524326D01*
X63672284Y-42418844D01*
X70129505Y-42418844D01*
X70301220Y-42834427D01*
X70618901Y-43152663D01*
X71034184Y-43325103D01*
X71483845Y-43325496D01*
X71899428Y-43153781D01*
X72217664Y-42836100D01*
X72390104Y-42420817D01*
X72390497Y-41971156D01*
X72218782Y-41555573D01*
X71901101Y-41237337D01*
X71485818Y-41064897D01*
X71036157Y-41064504D01*
X70620574Y-41236219D01*
X70302338Y-41553900D01*
X70129898Y-41969183D01*
X70129505Y-42418844D01*
X63672284Y-42418844D01*
X63672408Y-42276760D01*
X63577868Y-42047956D01*
X63402965Y-41872747D01*
X63174326Y-41777808D01*
X63071608Y-41777718D01*
X62867840Y-41525721D01*
X62951526Y-41105000D01*
X63188474Y-41105000D01*
X63274444Y-41537203D01*
X63519268Y-41903606D01*
X63885671Y-42148430D01*
X64317874Y-42234400D01*
X64362126Y-42234400D01*
X64794329Y-42148430D01*
X65160732Y-41903606D01*
X65405556Y-41537203D01*
X65491526Y-41105000D01*
X65405556Y-40672797D01*
X65160732Y-40306394D01*
X64794329Y-40061570D01*
X64362126Y-39975600D01*
X64317874Y-39975600D01*
X63885671Y-40061570D01*
X63519268Y-40306394D01*
X63274444Y-40672797D01*
X63188474Y-41105000D01*
X62951526Y-41105000D01*
X62865556Y-40672797D01*
X62620732Y-40306394D01*
X62254329Y-40061570D01*
X61822126Y-39975600D01*
X61777874Y-39975600D01*
X61345671Y-40061570D01*
X60979268Y-40306394D01*
X60734444Y-40672797D01*
X60648474Y-41105000D01*
X60547449Y-41105000D01*
X60542977Y-41082518D01*
X60533120Y-41014426D01*
X60527580Y-41005109D01*
X60525465Y-40994478D01*
X60487243Y-40937276D01*
X60452075Y-40878133D01*
X60443390Y-40871645D01*
X60437368Y-40862632D01*
X59453580Y-39878844D01*
X70129505Y-39878844D01*
X70301220Y-40294427D01*
X70618901Y-40612663D01*
X71034184Y-40785103D01*
X71483845Y-40785496D01*
X71899428Y-40613781D01*
X72217664Y-40296100D01*
X72390104Y-39880817D01*
X72390497Y-39431156D01*
X72218782Y-39015573D01*
X71901101Y-38697337D01*
X71485818Y-38524897D01*
X71036157Y-38524504D01*
X70620574Y-38696219D01*
X70302338Y-39013900D01*
X70129898Y-39429183D01*
X70129505Y-39878844D01*
X59453580Y-39878844D01*
X59084873Y-39510137D01*
X59084873Y-38925000D01*
X59065391Y-38821461D01*
X59004199Y-38726366D01*
X58910832Y-38662571D01*
X58800000Y-38640127D01*
X57500000Y-38640127D01*
X57396461Y-38659609D01*
X57301366Y-38720801D01*
X57237571Y-38814168D01*
X57215127Y-38925000D01*
X56888367Y-38925000D01*
X56661101Y-38697337D01*
X56342398Y-38565000D01*
X60648474Y-38565000D01*
X60734444Y-38997203D01*
X60979268Y-39363606D01*
X61345671Y-39608430D01*
X61777874Y-39694400D01*
X61822126Y-39694400D01*
X62254329Y-39608430D01*
X62620732Y-39363606D01*
X62865556Y-38997203D01*
X62951526Y-38565000D01*
X63188474Y-38565000D01*
X63274444Y-38997203D01*
X63519268Y-39363606D01*
X63885671Y-39608430D01*
X64317874Y-39694400D01*
X64362126Y-39694400D01*
X64794329Y-39608430D01*
X65160732Y-39363606D01*
X65405556Y-38997203D01*
X65491526Y-38565000D01*
X65405556Y-38132797D01*
X65160732Y-37766394D01*
X64794329Y-37521570D01*
X64362126Y-37435600D01*
X64317874Y-37435600D01*
X63885671Y-37521570D01*
X63519268Y-37766394D01*
X63274444Y-38132797D01*
X63188474Y-38565000D01*
X62951526Y-38565000D01*
X62865556Y-38132797D01*
X62620732Y-37766394D01*
X62254329Y-37521570D01*
X61822126Y-37435600D01*
X61777874Y-37435600D01*
X61345671Y-37521570D01*
X60979268Y-37766394D01*
X60734444Y-38132797D01*
X60648474Y-38565000D01*
X56342398Y-38565000D01*
X56245818Y-38524897D01*
X55796157Y-38524504D01*
X55380574Y-38696219D01*
X55062338Y-39013900D01*
X54889898Y-39429183D01*
X54889505Y-39878844D01*
X54017100Y-39878844D01*
X54017100Y-37338844D01*
X54889505Y-37338844D01*
X55061220Y-37754427D01*
X55378901Y-38072663D01*
X55794184Y-38245103D01*
X56243845Y-38245496D01*
X56659428Y-38073781D01*
X56977664Y-37756100D01*
X57063776Y-37548719D01*
X57215127Y-37552661D01*
X57215127Y-37725000D01*
X57234609Y-37828539D01*
X57295801Y-37923634D01*
X57389168Y-37987429D01*
X57500000Y-38009873D01*
X58800000Y-38009873D01*
X58903539Y-37990391D01*
X58998634Y-37929199D01*
X59062429Y-37835832D01*
X59084873Y-37725000D01*
X59084873Y-37338844D01*
X70129505Y-37338844D01*
X70301220Y-37754427D01*
X70618901Y-38072663D01*
X71034184Y-38245103D01*
X71483845Y-38245496D01*
X71899428Y-38073781D01*
X72217664Y-37756100D01*
X72390104Y-37340817D01*
X72390497Y-36891156D01*
X72218782Y-36475573D01*
X71901101Y-36157337D01*
X71485818Y-35984897D01*
X71036157Y-35984504D01*
X70620574Y-36156219D01*
X70302338Y-36473900D01*
X70129898Y-36889183D01*
X70129505Y-37338844D01*
X59084873Y-37338844D01*
X59084873Y-37025000D01*
X59065391Y-36921461D01*
X59004199Y-36826366D01*
X58910832Y-36762571D01*
X58800000Y-36740127D01*
X57500000Y-36740127D01*
X57467894Y-36746168D01*
X57086485Y-36736236D01*
X56978782Y-36475573D01*
X56661101Y-36157337D01*
X56245818Y-35984897D01*
X55796157Y-35984504D01*
X55380574Y-36156219D01*
X55062338Y-36473900D01*
X54889898Y-36889183D01*
X54889505Y-37338844D01*
X54017100Y-37338844D01*
X54017100Y-34798844D01*
X54889505Y-34798844D01*
X55061220Y-35214427D01*
X55378901Y-35532663D01*
X55794184Y-35705103D01*
X56243845Y-35705496D01*
X56659428Y-35533781D01*
X56968748Y-35225000D01*
X57215127Y-35225000D01*
X57215127Y-35925000D01*
X57234609Y-36028539D01*
X57295801Y-36123634D01*
X57389168Y-36187429D01*
X57500000Y-36209873D01*
X58800000Y-36209873D01*
X58903539Y-36190391D01*
X58998634Y-36129199D01*
X59062429Y-36035832D01*
X59069739Y-35999734D01*
X59197035Y-36127253D01*
X59425674Y-36222192D01*
X59673240Y-36222408D01*
X59902044Y-36127868D01*
X60077253Y-35952965D01*
X60172192Y-35724326D01*
X60172408Y-35476760D01*
X60077868Y-35247956D01*
X60005040Y-35175000D01*
X60665127Y-35175000D01*
X60665127Y-36875000D01*
X60684609Y-36978539D01*
X60745801Y-37073634D01*
X60839168Y-37137429D01*
X60950000Y-37159873D01*
X62650000Y-37159873D01*
X62753539Y-37140391D01*
X62848634Y-37079199D01*
X62912429Y-36985832D01*
X62934873Y-36875000D01*
X62934873Y-35175000D01*
X62915391Y-35071461D01*
X62854199Y-34976366D01*
X62760832Y-34912571D01*
X62650000Y-34890127D01*
X60950000Y-34890127D01*
X60846461Y-34909609D01*
X60751366Y-34970801D01*
X60687571Y-35064168D01*
X60665127Y-35175000D01*
X60005040Y-35175000D01*
X59902965Y-35072747D01*
X59674326Y-34977808D01*
X59426760Y-34977592D01*
X59197956Y-35072132D01*
X59101319Y-35168600D01*
X59074261Y-35168600D01*
X59065391Y-35121461D01*
X59004199Y-35026366D01*
X58910832Y-34962571D01*
X58800000Y-34940127D01*
X57500000Y-34940127D01*
X57396461Y-34959609D01*
X57301366Y-35020801D01*
X57237571Y-35114168D01*
X57215127Y-35225000D01*
X56968748Y-35225000D01*
X56977664Y-35216100D01*
X57150104Y-34800817D01*
X57150105Y-34798844D01*
X70129505Y-34798844D01*
X70301220Y-35214427D01*
X70618901Y-35532663D01*
X71034184Y-35705103D01*
X71483845Y-35705496D01*
X71899428Y-35533781D01*
X72217664Y-35216100D01*
X72390104Y-34800817D01*
X72390497Y-34351156D01*
X72218782Y-33935573D01*
X71901101Y-33617337D01*
X71485818Y-33444897D01*
X71036157Y-33444504D01*
X70620574Y-33616219D01*
X70302338Y-33933900D01*
X70129898Y-34349183D01*
X70129505Y-34798844D01*
X57150105Y-34798844D01*
X57150389Y-34474347D01*
X57358358Y-34266378D01*
X57389168Y-34287429D01*
X57500000Y-34309873D01*
X58800000Y-34309873D01*
X58903539Y-34290391D01*
X58998634Y-34229199D01*
X59062429Y-34135832D01*
X59084873Y-34025000D01*
X59084873Y-33325000D01*
X59065391Y-33221461D01*
X59004199Y-33126366D01*
X58910832Y-33062571D01*
X58800000Y-33040127D01*
X57500000Y-33040127D01*
X57396461Y-33059609D01*
X57301366Y-33120801D01*
X57237571Y-33214168D01*
X57220318Y-33299368D01*
X57219477Y-33299535D01*
X57087632Y-33387632D01*
X56759428Y-33715836D01*
X56661101Y-33617337D01*
X56245818Y-33444897D01*
X55796157Y-33444504D01*
X55380574Y-33616219D01*
X55062338Y-33933900D01*
X54889898Y-34349183D01*
X54889505Y-34798844D01*
X54017100Y-34798844D01*
X54017100Y-32940674D01*
X55293932Y-32940674D01*
X55388251Y-33120593D01*
X55851779Y-33279717D01*
X56340916Y-33249345D01*
X56651751Y-33120593D01*
X56746070Y-32940674D01*
X56020001Y-32214605D01*
X55293932Y-32940674D01*
X54017100Y-32940674D01*
X54017100Y-31866778D01*
X54775284Y-31866778D01*
X54805656Y-32355915D01*
X54934408Y-32666750D01*
X55114327Y-32761069D01*
X55840396Y-32035000D01*
X56199606Y-32035000D01*
X56925675Y-32761069D01*
X57105594Y-32666750D01*
X57264718Y-32203222D01*
X57236755Y-31752874D01*
X59665600Y-31752874D01*
X59665600Y-31797126D01*
X59751570Y-32229329D01*
X59996394Y-32595732D01*
X60362797Y-32840556D01*
X60795000Y-32926526D01*
X61227203Y-32840556D01*
X61593606Y-32595732D01*
X61838430Y-32229329D01*
X61924400Y-31797126D01*
X61924400Y-31752874D01*
X62205600Y-31752874D01*
X62205600Y-31797126D01*
X62291570Y-32229329D01*
X62536394Y-32595732D01*
X62902797Y-32840556D01*
X63335000Y-32926526D01*
X63767203Y-32840556D01*
X64133606Y-32595732D01*
X64378430Y-32229329D01*
X64464400Y-31797126D01*
X64464400Y-31752874D01*
X64378430Y-31320671D01*
X64133606Y-30954268D01*
X64089804Y-30925000D01*
X64740127Y-30925000D01*
X64740127Y-32625000D01*
X64759609Y-32728539D01*
X64820801Y-32823634D01*
X64914168Y-32887429D01*
X65025000Y-32909873D01*
X66725000Y-32909873D01*
X66828539Y-32890391D01*
X66923634Y-32829199D01*
X66987429Y-32735832D01*
X67009873Y-32625000D01*
X67009873Y-32258844D01*
X70129505Y-32258844D01*
X70301220Y-32674427D01*
X70618901Y-32992663D01*
X71034184Y-33165103D01*
X71483845Y-33165496D01*
X71899428Y-32993781D01*
X72217664Y-32676100D01*
X72390104Y-32260817D01*
X72390497Y-31811156D01*
X72218782Y-31395573D01*
X71901101Y-31077337D01*
X71485818Y-30904897D01*
X71036157Y-30904504D01*
X70620574Y-31076219D01*
X70302338Y-31393900D01*
X70129898Y-31809183D01*
X70129505Y-32258844D01*
X67009873Y-32258844D01*
X67009873Y-30925000D01*
X66990391Y-30821461D01*
X66929199Y-30726366D01*
X66835832Y-30662571D01*
X66725000Y-30640127D01*
X65025000Y-30640127D01*
X64921461Y-30659609D01*
X64826366Y-30720801D01*
X64762571Y-30814168D01*
X64740127Y-30925000D01*
X64089804Y-30925000D01*
X63767203Y-30709444D01*
X63335000Y-30623474D01*
X62902797Y-30709444D01*
X62536394Y-30954268D01*
X62291570Y-31320671D01*
X62205600Y-31752874D01*
X61924400Y-31752874D01*
X61838430Y-31320671D01*
X61593606Y-30954268D01*
X61227203Y-30709444D01*
X60795000Y-30623474D01*
X60362797Y-30709444D01*
X59996394Y-30954268D01*
X59751570Y-31320671D01*
X59665600Y-31752874D01*
X57236755Y-31752874D01*
X57234346Y-31714085D01*
X57105594Y-31403250D01*
X56925675Y-31308931D01*
X56199606Y-32035000D01*
X55840396Y-32035000D01*
X55114327Y-31308931D01*
X54934408Y-31403250D01*
X54775284Y-31866778D01*
X54017100Y-31866778D01*
X54017100Y-31129326D01*
X55293932Y-31129326D01*
X56020001Y-31855395D01*
X56746070Y-31129326D01*
X56651751Y-30949407D01*
X56188223Y-30790283D01*
X55699086Y-30820655D01*
X55388251Y-30949407D01*
X55293932Y-31129326D01*
X54017100Y-31129326D01*
X54017100Y-31052282D01*
X54053257Y-30695854D01*
X54152046Y-30378681D01*
X54308565Y-30090967D01*
X54515941Y-29839741D01*
X54767167Y-29632365D01*
X55054879Y-29475846D01*
X55372055Y-29377057D01*
X55728482Y-29340900D01*
X71697718Y-29340900D01*
X72054146Y-29377057D01*
X72054146Y-29377057D01*
G37*
X72054146Y-29377057D02*
X72371319Y-29475846D01*
X72659033Y-29632365D01*
X72910259Y-29839741D01*
X73117635Y-30090967D01*
X73274154Y-30378679D01*
X73372943Y-30695855D01*
X73409100Y-31052282D01*
X73409100Y-65421518D01*
X73372943Y-65777945D01*
X73274154Y-66095121D01*
X73117635Y-66382833D01*
X72910259Y-66634059D01*
X72659033Y-66841435D01*
X72371319Y-66997954D01*
X72054146Y-67096743D01*
X71697718Y-67132900D01*
X55728482Y-67132900D01*
X55372055Y-67096743D01*
X55054879Y-66997954D01*
X54767167Y-66841435D01*
X54515941Y-66634059D01*
X54308565Y-66382833D01*
X54152046Y-66095119D01*
X54053257Y-65777946D01*
X54017100Y-65421518D01*
X54017100Y-60198844D01*
X54889505Y-60198844D01*
X55061220Y-60614427D01*
X55378901Y-60932663D01*
X55794184Y-61105103D01*
X56243845Y-61105496D01*
X56659428Y-60933781D01*
X56818600Y-60774887D01*
X56818600Y-60856664D01*
X56277296Y-61397968D01*
X56245818Y-61384897D01*
X55796157Y-61384504D01*
X55380574Y-61556219D01*
X55062338Y-61873900D01*
X54889898Y-62289183D01*
X54889505Y-62738844D01*
X55061220Y-63154427D01*
X55378901Y-63472663D01*
X55794184Y-63645103D01*
X56243845Y-63645496D01*
X56659428Y-63473781D01*
X56977664Y-63156100D01*
X57150104Y-62740817D01*
X57150497Y-62291156D01*
X56978782Y-61875573D01*
X56963985Y-61860751D01*
X57440127Y-61384609D01*
X57440127Y-61525000D01*
X57459609Y-61628539D01*
X57520801Y-61723634D01*
X57614168Y-61787429D01*
X57725000Y-61809873D01*
X57767416Y-61809873D01*
X57677808Y-62025674D01*
X57677592Y-62273240D01*
X57746548Y-62440127D01*
X57725000Y-62440127D01*
X57621461Y-62459609D01*
X57526366Y-62520801D01*
X57462571Y-62614168D01*
X57440127Y-62725000D01*
X57440127Y-63425000D01*
X57441732Y-63433532D01*
X56719463Y-64155801D01*
X56661101Y-64097337D01*
X56245818Y-63924897D01*
X55796157Y-63924504D01*
X55380574Y-64096219D01*
X55062338Y-64413900D01*
X54889898Y-64829183D01*
X54889505Y-65278844D01*
X55061220Y-65694427D01*
X55378901Y-66012663D01*
X55794184Y-66185103D01*
X56243845Y-66185496D01*
X56659428Y-66013781D01*
X56977664Y-65696100D01*
X57150104Y-65280817D01*
X57150459Y-64874277D01*
X57596304Y-64428432D01*
X57429898Y-64829183D01*
X57429505Y-65278844D01*
X57601220Y-65694427D01*
X57918901Y-66012663D01*
X58334184Y-66185103D01*
X58783845Y-66185496D01*
X59199428Y-66013781D01*
X59517664Y-65696100D01*
X59690104Y-65280817D01*
X59690105Y-65278844D01*
X59969505Y-65278844D01*
X60141220Y-65694427D01*
X60458901Y-66012663D01*
X60874184Y-66185103D01*
X61323845Y-66185496D01*
X61739428Y-66013781D01*
X62057664Y-65696100D01*
X62230104Y-65280817D01*
X62230105Y-65278844D01*
X62509505Y-65278844D01*
X62681220Y-65694427D01*
X62998901Y-66012663D01*
X63414184Y-66185103D01*
X63863845Y-66185496D01*
X64279428Y-66013781D01*
X64597664Y-65696100D01*
X64770104Y-65280817D01*
X64770105Y-65278844D01*
X65049505Y-65278844D01*
X65221220Y-65694427D01*
X65538901Y-66012663D01*
X65954184Y-66185103D01*
X66403845Y-66185496D01*
X66819428Y-66013781D01*
X67137664Y-65696100D01*
X67310104Y-65280817D01*
X67310105Y-65278844D01*
X67589505Y-65278844D01*
X67761220Y-65694427D01*
X68078901Y-66012663D01*
X68494184Y-66185103D01*
X68943845Y-66185496D01*
X69359428Y-66013781D01*
X69677664Y-65696100D01*
X69850104Y-65280817D01*
X69850105Y-65278844D01*
X70129505Y-65278844D01*
X70301220Y-65694427D01*
X70618901Y-66012663D01*
X71034184Y-66185103D01*
X71483845Y-66185496D01*
X71899428Y-66013781D01*
X72217664Y-65696100D01*
X72390104Y-65280817D01*
X72390497Y-64831156D01*
X72218782Y-64415573D01*
X71901101Y-64097337D01*
X71485818Y-63924897D01*
X71036157Y-63924504D01*
X70620574Y-64096219D01*
X70302338Y-64413900D01*
X70129898Y-64829183D01*
X70129505Y-65278844D01*
X69850105Y-65278844D01*
X69850497Y-64831156D01*
X69678782Y-64415573D01*
X69361101Y-64097337D01*
X68945818Y-63924897D01*
X68496157Y-63924504D01*
X68080574Y-64096219D01*
X67762338Y-64413900D01*
X67589898Y-64829183D01*
X67589505Y-65278844D01*
X67310105Y-65278844D01*
X67310497Y-64831156D01*
X67138782Y-64415573D01*
X66821101Y-64097337D01*
X66405818Y-63924897D01*
X66111851Y-63924640D01*
X66115820Y-63922996D01*
X66222996Y-63815819D01*
X66281000Y-63675785D01*
X66281000Y-63172250D01*
X66185750Y-63077000D01*
X65677000Y-63077000D01*
X65677000Y-63885750D01*
X65772250Y-63981000D01*
X65819426Y-63981000D01*
X65540574Y-64096219D01*
X65222338Y-64413900D01*
X65049898Y-64829183D01*
X65049505Y-65278844D01*
X64770105Y-65278844D01*
X64770497Y-64831156D01*
X64598782Y-64415573D01*
X64281101Y-64097337D01*
X64224201Y-64073710D01*
X64224201Y-63766780D01*
X64262429Y-63710832D01*
X64284873Y-63600000D01*
X64284873Y-63172250D01*
X64819000Y-63172250D01*
X64819000Y-63675785D01*
X64877004Y-63815819D01*
X64984180Y-63922996D01*
X65124214Y-63981000D01*
X65327750Y-63981000D01*
X65423000Y-63885750D01*
X65423000Y-63077000D01*
X64914250Y-63077000D01*
X64819000Y-63172250D01*
X64284873Y-63172250D01*
X64284873Y-62300000D01*
X64270614Y-62224215D01*
X64819000Y-62224215D01*
X64819000Y-62727750D01*
X64914250Y-62823000D01*
X65423000Y-62823000D01*
X65423000Y-62014250D01*
X65677000Y-62014250D01*
X65677000Y-62823000D01*
X66185750Y-62823000D01*
X66269906Y-62738844D01*
X70129505Y-62738844D01*
X70301220Y-63154427D01*
X70618901Y-63472663D01*
X71034184Y-63645103D01*
X71483845Y-63645496D01*
X71899428Y-63473781D01*
X72217664Y-63156100D01*
X72390104Y-62740817D01*
X72390497Y-62291156D01*
X72218782Y-61875573D01*
X71901101Y-61557337D01*
X71485818Y-61384897D01*
X71036157Y-61384504D01*
X70620574Y-61556219D01*
X70302338Y-61873900D01*
X70129898Y-62289183D01*
X70129505Y-62738844D01*
X66269906Y-62738844D01*
X66281000Y-62727750D01*
X66281000Y-62224215D01*
X66222996Y-62084181D01*
X66115820Y-61977004D01*
X65975786Y-61919000D01*
X65772250Y-61919000D01*
X65677000Y-62014250D01*
X65423000Y-62014250D01*
X65327750Y-61919000D01*
X65124214Y-61919000D01*
X64984180Y-61977004D01*
X64877004Y-62084181D01*
X64819000Y-62224215D01*
X64270614Y-62224215D01*
X64265391Y-62196461D01*
X64204199Y-62101366D01*
X64110832Y-62037571D01*
X64000000Y-62015127D01*
X63300000Y-62015127D01*
X63196461Y-62034609D01*
X63101366Y-62095801D01*
X63037571Y-62189168D01*
X63015127Y-62300000D01*
X63015127Y-63600000D01*
X63034609Y-63703539D01*
X63055801Y-63736472D01*
X63055801Y-64073400D01*
X63000574Y-64096219D01*
X62682338Y-64413900D01*
X62509898Y-64829183D01*
X62509505Y-65278844D01*
X62230105Y-65278844D01*
X62230497Y-64831156D01*
X62058782Y-64415573D01*
X61741101Y-64097337D01*
X61325818Y-63924897D01*
X60876157Y-63924504D01*
X60460574Y-64096219D01*
X60142338Y-64413900D01*
X59969898Y-64829183D01*
X59969505Y-65278844D01*
X59690105Y-65278844D01*
X59690497Y-64831156D01*
X59518782Y-64415573D01*
X59201101Y-64097337D01*
X58785818Y-63924897D01*
X58336157Y-63924504D01*
X57934110Y-64090626D01*
X58314863Y-63709873D01*
X59025000Y-63709873D01*
X59128539Y-63690391D01*
X59223634Y-63629199D01*
X59287429Y-63535832D01*
X59309873Y-63425000D01*
X59309873Y-62725000D01*
X59290391Y-62621461D01*
X59229199Y-62526366D01*
X59135832Y-62462571D01*
X59025000Y-62440127D01*
X58853346Y-62440127D01*
X58922192Y-62274326D01*
X58922408Y-62026760D01*
X58832792Y-61809873D01*
X59025000Y-61809873D01*
X59128539Y-61790391D01*
X59223634Y-61729199D01*
X59287429Y-61635832D01*
X59309873Y-61525000D01*
X59309873Y-60825000D01*
X59290391Y-60721461D01*
X59229199Y-60626366D01*
X59135832Y-60562571D01*
X59025000Y-60540127D01*
X57834609Y-60540127D01*
X58089864Y-60284873D01*
X59025000Y-60284873D01*
X59128539Y-60265391D01*
X59223634Y-60204199D01*
X59287429Y-60110832D01*
X59309873Y-60000000D01*
X59309873Y-59300000D01*
X59291430Y-59201980D01*
X60610511Y-59201980D01*
X60734755Y-59501964D01*
X61051944Y-59862652D01*
X61483018Y-60074501D01*
X61673000Y-60014193D01*
X61673000Y-59012000D01*
X61927000Y-59012000D01*
X61927000Y-60014193D01*
X62116982Y-60074501D01*
X62548056Y-59862652D01*
X62865245Y-59501964D01*
X62989489Y-59201980D01*
X62928627Y-59012000D01*
X61927000Y-59012000D01*
X61673000Y-59012000D01*
X60671373Y-59012000D01*
X60610511Y-59201980D01*
X59291430Y-59201980D01*
X59290391Y-59196461D01*
X59229199Y-59101366D01*
X59135832Y-59037571D01*
X59025000Y-59015127D01*
X57725000Y-59015127D01*
X57621461Y-59034609D01*
X57526366Y-59095801D01*
X57462571Y-59189168D01*
X57440127Y-59300000D01*
X57440127Y-59785136D01*
X57150214Y-60075050D01*
X57150497Y-59751156D01*
X56978782Y-59335573D01*
X56661101Y-59017337D01*
X56245818Y-58844897D01*
X55796157Y-58844504D01*
X55380574Y-59016219D01*
X55062338Y-59333900D01*
X54889898Y-59749183D01*
X54889505Y-60198844D01*
X54017100Y-60198844D01*
X54017100Y-58568020D01*
X60610511Y-58568020D01*
X60671373Y-58758000D01*
X61673000Y-58758000D01*
X61673000Y-57755807D01*
X61927000Y-57755807D01*
X61927000Y-58758000D01*
X62928627Y-58758000D01*
X62989489Y-58568020D01*
X62865245Y-58268036D01*
X62548056Y-57907348D01*
X62116982Y-57695499D01*
X61927000Y-57755807D01*
X61673000Y-57755807D01*
X61483018Y-57695499D01*
X61051944Y-57907348D01*
X60734755Y-58268036D01*
X60610511Y-58568020D01*
X54017100Y-58568020D01*
X54017100Y-57658844D01*
X54889505Y-57658844D01*
X55061220Y-58074427D01*
X55378901Y-58392663D01*
X55794184Y-58565103D01*
X56243845Y-58565496D01*
X56659428Y-58393781D01*
X56977664Y-58076100D01*
X57150104Y-57660817D01*
X57150331Y-57400000D01*
X57440127Y-57400000D01*
X57440127Y-58100000D01*
X57459609Y-58203539D01*
X57520801Y-58298634D01*
X57614168Y-58362429D01*
X57725000Y-58384873D01*
X59025000Y-58384873D01*
X59128539Y-58365391D01*
X59223634Y-58304199D01*
X59287429Y-58210832D01*
X59309873Y-58100000D01*
X59309873Y-57400000D01*
X59290391Y-57296461D01*
X59229199Y-57201366D01*
X59135832Y-57137571D01*
X59025000Y-57115127D01*
X58726569Y-57115127D01*
X58686202Y-56660999D01*
X58722192Y-56574326D01*
X58722408Y-56326760D01*
X58627868Y-56097956D01*
X58465070Y-55934873D01*
X59100000Y-55934873D01*
X59203539Y-55915391D01*
X59298634Y-55854199D01*
X59362429Y-55760832D01*
X59373452Y-55706400D01*
X59926393Y-55706400D01*
X60047035Y-55827253D01*
X60275674Y-55922192D01*
X60523240Y-55922408D01*
X60752044Y-55827868D01*
X60869611Y-55710506D01*
X60734444Y-55912797D01*
X60648474Y-56345000D01*
X60734444Y-56777203D01*
X60979268Y-57143606D01*
X61345671Y-57388430D01*
X61777874Y-57474400D01*
X61822126Y-57474400D01*
X62254329Y-57388430D01*
X62620732Y-57143606D01*
X62865556Y-56777203D01*
X62951526Y-56345000D01*
X63188474Y-56345000D01*
X63274444Y-56777203D01*
X63519268Y-57143606D01*
X63885671Y-57388430D01*
X64317874Y-57474400D01*
X64362126Y-57474400D01*
X64794329Y-57388430D01*
X65160732Y-57143606D01*
X65405556Y-56777203D01*
X65491526Y-56345000D01*
X65405556Y-55912797D01*
X65160732Y-55546394D01*
X64794329Y-55301570D01*
X64362126Y-55215600D01*
X64317874Y-55215600D01*
X63885671Y-55301570D01*
X63519268Y-55546394D01*
X63274444Y-55912797D01*
X63188474Y-56345000D01*
X62951526Y-56345000D01*
X62865556Y-55912797D01*
X62620732Y-55546394D01*
X62254329Y-55301570D01*
X61822126Y-55215600D01*
X61777874Y-55215600D01*
X61345671Y-55301570D01*
X60979268Y-55546394D01*
X60958761Y-55577084D01*
X61022192Y-55424326D01*
X61022408Y-55176760D01*
X60927868Y-54947956D01*
X60752965Y-54772747D01*
X60524326Y-54677808D01*
X60276760Y-54677592D01*
X60047956Y-54772132D01*
X59926275Y-54893600D01*
X59374261Y-54893600D01*
X59365391Y-54846461D01*
X59304199Y-54751366D01*
X59210832Y-54687571D01*
X59100000Y-54665127D01*
X57800000Y-54665127D01*
X57696461Y-54684609D01*
X57601366Y-54745801D01*
X57537571Y-54839168D01*
X57515127Y-54950000D01*
X57515127Y-55650000D01*
X57534609Y-55753539D01*
X57595801Y-55848634D01*
X57689168Y-55912429D01*
X57746122Y-55923963D01*
X57572747Y-56097035D01*
X57477808Y-56325674D01*
X57477592Y-56573240D01*
X57572132Y-56802044D01*
X57747035Y-56977253D01*
X57904106Y-57042475D01*
X57910564Y-57115127D01*
X57725000Y-57115127D01*
X57621461Y-57134609D01*
X57526366Y-57195801D01*
X57462571Y-57289168D01*
X57440127Y-57400000D01*
X57150331Y-57400000D01*
X57150497Y-57211156D01*
X56978782Y-56795573D01*
X56661101Y-56477337D01*
X56245818Y-56304897D01*
X55796157Y-56304504D01*
X55380574Y-56476219D01*
X55062338Y-56793900D01*
X54889898Y-57209183D01*
X54889505Y-57658844D01*
X54017100Y-57658844D01*
X54017100Y-55118844D01*
X54889505Y-55118844D01*
X55061220Y-55534427D01*
X55378901Y-55852663D01*
X55794184Y-56025103D01*
X56243845Y-56025496D01*
X56659428Y-55853781D01*
X56977664Y-55536100D01*
X57150104Y-55120817D01*
X57150497Y-54671156D01*
X56978782Y-54255573D01*
X56661101Y-53937337D01*
X56245818Y-53764897D01*
X55796157Y-53764504D01*
X55380574Y-53936219D01*
X55062338Y-54253900D01*
X54889898Y-54669183D01*
X54889505Y-55118844D01*
X54017100Y-55118844D01*
X54017100Y-52578844D01*
X54889505Y-52578844D01*
X55061220Y-52994427D01*
X55378901Y-53312663D01*
X55794184Y-53485103D01*
X56243845Y-53485496D01*
X56659428Y-53313781D01*
X56923669Y-53050000D01*
X57515127Y-53050000D01*
X57515127Y-53750000D01*
X57534609Y-53853539D01*
X57595801Y-53948634D01*
X57689168Y-54012429D01*
X57800000Y-54034873D01*
X59100000Y-54034873D01*
X59203539Y-54015391D01*
X59298634Y-53954199D01*
X59329267Y-53909366D01*
X59397035Y-53977253D01*
X59625674Y-54072192D01*
X59873240Y-54072408D01*
X60102044Y-53977868D01*
X60275214Y-53805000D01*
X60648474Y-53805000D01*
X60734444Y-54237203D01*
X60979268Y-54603606D01*
X61345671Y-54848430D01*
X61777874Y-54934400D01*
X61822126Y-54934400D01*
X62254329Y-54848430D01*
X62620732Y-54603606D01*
X62865556Y-54237203D01*
X62951526Y-53805000D01*
X63188474Y-53805000D01*
X63274444Y-54237203D01*
X63519268Y-54603606D01*
X63885671Y-54848430D01*
X64317874Y-54934400D01*
X64362126Y-54934400D01*
X64794329Y-54848430D01*
X65160732Y-54603606D01*
X65405556Y-54237203D01*
X65491526Y-53805000D01*
X65405556Y-53372797D01*
X65160732Y-53006394D01*
X64794329Y-52761570D01*
X64362126Y-52675600D01*
X64317874Y-52675600D01*
X63885671Y-52761570D01*
X63519268Y-53006394D01*
X63274444Y-53372797D01*
X63188474Y-53805000D01*
X62951526Y-53805000D01*
X62865556Y-53372797D01*
X62620732Y-53006394D01*
X62254329Y-52761570D01*
X61822126Y-52675600D01*
X61777874Y-52675600D01*
X61345671Y-52761570D01*
X60979268Y-53006394D01*
X60734444Y-53372797D01*
X60648474Y-53805000D01*
X60275214Y-53805000D01*
X60277253Y-53802965D01*
X60372192Y-53574326D01*
X60372408Y-53326760D01*
X60277868Y-53097956D01*
X60102965Y-52922747D01*
X59874326Y-52827808D01*
X59626760Y-52827592D01*
X59397956Y-52922132D01*
X59366687Y-52953347D01*
X59365391Y-52946461D01*
X59304199Y-52851366D01*
X59210832Y-52787571D01*
X59100000Y-52765127D01*
X57800000Y-52765127D01*
X57696461Y-52784609D01*
X57601366Y-52845801D01*
X57537571Y-52939168D01*
X57515127Y-53050000D01*
X56923669Y-53050000D01*
X56977664Y-52996100D01*
X57150104Y-52580817D01*
X57150497Y-52131156D01*
X56978782Y-51715573D01*
X56661101Y-51397337D01*
X56342398Y-51265000D01*
X60648474Y-51265000D01*
X60734444Y-51697203D01*
X60979268Y-52063606D01*
X61345671Y-52308430D01*
X61777874Y-52394400D01*
X61822126Y-52394400D01*
X62254329Y-52308430D01*
X62620732Y-52063606D01*
X62865556Y-51697203D01*
X62951526Y-51265000D01*
X63188474Y-51265000D01*
X63274444Y-51697203D01*
X63519268Y-52063606D01*
X63885671Y-52308430D01*
X64317874Y-52394400D01*
X64362126Y-52394400D01*
X64794329Y-52308430D01*
X65160732Y-52063606D01*
X65405556Y-51697203D01*
X65491526Y-51265000D01*
X65405556Y-50832797D01*
X65160732Y-50466394D01*
X64794329Y-50221570D01*
X64362126Y-50135600D01*
X64317874Y-50135600D01*
X63885671Y-50221570D01*
X63519268Y-50466394D01*
X63274444Y-50832797D01*
X63188474Y-51265000D01*
X62951526Y-51265000D01*
X62865556Y-50832797D01*
X62620732Y-50466394D01*
X62254329Y-50221570D01*
X61822126Y-50135600D01*
X61777874Y-50135600D01*
X61345671Y-50221570D01*
X60979268Y-50466394D01*
X60734444Y-50832797D01*
X60648474Y-51265000D01*
X56342398Y-51265000D01*
X56245818Y-51224897D01*
X55796157Y-51224504D01*
X55380574Y-51396219D01*
X55062338Y-51713900D01*
X54889898Y-52129183D01*
X54889505Y-52578844D01*
X54017100Y-52578844D01*
X54017100Y-50038844D01*
X54889505Y-50038844D01*
X55061220Y-50454427D01*
X55378901Y-50772663D01*
X55794184Y-50945103D01*
X56243845Y-50945496D01*
X56659428Y-50773781D01*
X56977664Y-50456100D01*
X57150104Y-50040817D01*
X57150497Y-49591156D01*
X56978782Y-49175573D01*
X56661101Y-48857337D01*
X56342398Y-48725000D01*
X63188474Y-48725000D01*
X63274444Y-49157203D01*
X63519268Y-49523606D01*
X63885671Y-49768430D01*
X64317874Y-49854400D01*
X64362126Y-49854400D01*
X64794329Y-49768430D01*
X65160732Y-49523606D01*
X65405556Y-49157203D01*
X65491526Y-48725000D01*
X65405556Y-48292797D01*
X65160732Y-47926394D01*
X64794329Y-47681570D01*
X64362126Y-47595600D01*
X64317874Y-47595600D01*
X63885671Y-47681570D01*
X63519268Y-47926394D01*
X63274444Y-48292797D01*
X63188474Y-48725000D01*
X56342398Y-48725000D01*
X56245818Y-48684897D01*
X55796157Y-48684504D01*
X55380574Y-48856219D01*
X55062338Y-49173900D01*
X54889898Y-49589183D01*
X54889505Y-50038844D01*
X54017100Y-50038844D01*
X54017100Y-47498844D01*
X54889505Y-47498844D01*
X55061220Y-47914427D01*
X55378901Y-48232663D01*
X55794184Y-48405103D01*
X56243845Y-48405496D01*
X56659428Y-48233781D01*
X56977664Y-47916100D01*
X57150104Y-47500817D01*
X57150497Y-47051156D01*
X56978782Y-46635573D01*
X56845422Y-46501980D01*
X63150511Y-46501980D01*
X63274755Y-46801964D01*
X63591944Y-47162652D01*
X64023018Y-47374501D01*
X64213000Y-47314193D01*
X64213000Y-46312000D01*
X64467000Y-46312000D01*
X64467000Y-47314193D01*
X64656982Y-47374501D01*
X65088056Y-47162652D01*
X65386534Y-46823240D01*
X65527592Y-46823240D01*
X65622132Y-47052044D01*
X65743600Y-47173725D01*
X65743600Y-59850000D01*
X65774535Y-60005523D01*
X65840028Y-60103539D01*
X65862632Y-60137368D01*
X66077741Y-60352477D01*
X66077592Y-60523240D01*
X66172132Y-60752044D01*
X66347035Y-60927253D01*
X66575674Y-61022192D01*
X66823240Y-61022408D01*
X67052044Y-60927868D01*
X67227253Y-60752965D01*
X67322192Y-60524326D01*
X67322408Y-60276760D01*
X67227868Y-60047956D01*
X67052965Y-59872747D01*
X66824326Y-59777808D01*
X66652394Y-59777658D01*
X66556400Y-59681664D01*
X66556400Y-55073240D01*
X66927592Y-55073240D01*
X67022132Y-55302044D01*
X67143600Y-55423725D01*
X67143600Y-58350000D01*
X67157136Y-58418050D01*
X67167276Y-58486687D01*
X67506432Y-59436325D01*
X67427808Y-59625674D01*
X67427592Y-59873240D01*
X67522132Y-60102044D01*
X67697035Y-60277253D01*
X67925674Y-60372192D01*
X68173240Y-60372408D01*
X68402044Y-60277868D01*
X68481206Y-60198844D01*
X70129505Y-60198844D01*
X70301220Y-60614427D01*
X70618901Y-60932663D01*
X71034184Y-61105103D01*
X71483845Y-61105496D01*
X71899428Y-60933781D01*
X72217664Y-60616100D01*
X72390104Y-60200817D01*
X72390497Y-59751156D01*
X72218782Y-59335573D01*
X71901101Y-59017337D01*
X71485818Y-58844897D01*
X71036157Y-58844504D01*
X70620574Y-59016219D01*
X70302338Y-59333900D01*
X70129898Y-59749183D01*
X70129505Y-60198844D01*
X68481206Y-60198844D01*
X68577253Y-60102965D01*
X68672192Y-59874326D01*
X68672408Y-59626760D01*
X68577868Y-59397956D01*
X68402965Y-59222747D01*
X68274130Y-59169250D01*
X67956400Y-58279606D01*
X67956400Y-55423607D01*
X68077253Y-55302965D01*
X68172192Y-55074326D01*
X68172408Y-54826760D01*
X68077868Y-54597956D01*
X67902965Y-54422747D01*
X67674326Y-54327808D01*
X67426760Y-54327592D01*
X67197956Y-54422132D01*
X67022747Y-54597035D01*
X66927808Y-54825674D01*
X66927592Y-55073240D01*
X66556400Y-55073240D01*
X66556400Y-54223240D01*
X68777592Y-54223240D01*
X68872132Y-54452044D01*
X68993600Y-54573725D01*
X68993600Y-57926218D01*
X68972747Y-57947035D01*
X68877808Y-58175674D01*
X68877592Y-58423240D01*
X68972132Y-58652044D01*
X69147035Y-58827253D01*
X69375674Y-58922192D01*
X69623240Y-58922408D01*
X69852044Y-58827868D01*
X70027253Y-58652965D01*
X70122192Y-58424326D01*
X70122408Y-58176760D01*
X70027868Y-57947956D01*
X69852965Y-57772747D01*
X69806400Y-57753412D01*
X69806400Y-57658844D01*
X70129505Y-57658844D01*
X70301220Y-58074427D01*
X70618901Y-58392663D01*
X71034184Y-58565103D01*
X71483845Y-58565496D01*
X71899428Y-58393781D01*
X72217664Y-58076100D01*
X72390104Y-57660817D01*
X72390497Y-57211156D01*
X72218782Y-56795573D01*
X71901101Y-56477337D01*
X71485818Y-56304897D01*
X71036157Y-56304504D01*
X70620574Y-56476219D01*
X70302338Y-56793900D01*
X70129898Y-57209183D01*
X70129505Y-57658844D01*
X69806400Y-57658844D01*
X69806400Y-55118844D01*
X70129505Y-55118844D01*
X70301220Y-55534427D01*
X70618901Y-55852663D01*
X71034184Y-56025103D01*
X71483845Y-56025496D01*
X71899428Y-55853781D01*
X72217664Y-55536100D01*
X72390104Y-55120817D01*
X72390497Y-54671156D01*
X72218782Y-54255573D01*
X71901101Y-53937337D01*
X71485818Y-53764897D01*
X71036157Y-53764504D01*
X70620574Y-53936219D01*
X70302338Y-54253900D01*
X70129898Y-54669183D01*
X70129505Y-55118844D01*
X69806400Y-55118844D01*
X69806400Y-54573607D01*
X69927253Y-54452965D01*
X70022192Y-54224326D01*
X70022408Y-53976760D01*
X69927868Y-53747956D01*
X69752965Y-53572747D01*
X69524326Y-53477808D01*
X69276760Y-53477592D01*
X69047956Y-53572132D01*
X68872747Y-53747035D01*
X68777808Y-53975674D01*
X68777592Y-54223240D01*
X66556400Y-54223240D01*
X66556400Y-52578844D01*
X70129505Y-52578844D01*
X70301220Y-52994427D01*
X70618901Y-53312663D01*
X71034184Y-53485103D01*
X71483845Y-53485496D01*
X71899428Y-53313781D01*
X72217664Y-52996100D01*
X72390104Y-52580817D01*
X72390497Y-52131156D01*
X72218782Y-51715573D01*
X71901101Y-51397337D01*
X71485818Y-51224897D01*
X71036157Y-51224504D01*
X70620574Y-51396219D01*
X70302338Y-51713900D01*
X70129898Y-52129183D01*
X70129505Y-52578844D01*
X66556400Y-52578844D01*
X66556400Y-50038844D01*
X70129505Y-50038844D01*
X70301220Y-50454427D01*
X70618901Y-50772663D01*
X71034184Y-50945103D01*
X71483845Y-50945496D01*
X71899428Y-50773781D01*
X72217664Y-50456100D01*
X72390104Y-50040817D01*
X72390497Y-49591156D01*
X72218782Y-49175573D01*
X71901101Y-48857337D01*
X71485818Y-48684897D01*
X71036157Y-48684504D01*
X70620574Y-48856219D01*
X70302338Y-49173900D01*
X70129898Y-49589183D01*
X70129505Y-50038844D01*
X66556400Y-50038844D01*
X66556400Y-47498844D01*
X70129505Y-47498844D01*
X70301220Y-47914427D01*
X70618901Y-48232663D01*
X71034184Y-48405103D01*
X71483845Y-48405496D01*
X71899428Y-48233781D01*
X72217664Y-47916100D01*
X72390104Y-47500817D01*
X72390497Y-47051156D01*
X72218782Y-46635573D01*
X71901101Y-46317337D01*
X71485818Y-46144897D01*
X71036157Y-46144504D01*
X70620574Y-46316219D01*
X70302338Y-46633900D01*
X70129898Y-47049183D01*
X70129505Y-47498844D01*
X66556400Y-47498844D01*
X66556400Y-47173607D01*
X66677253Y-47052965D01*
X66772192Y-46824326D01*
X66772408Y-46576760D01*
X66677868Y-46347956D01*
X66502965Y-46172747D01*
X66274326Y-46077808D01*
X66026760Y-46077592D01*
X65797956Y-46172132D01*
X65622747Y-46347035D01*
X65527808Y-46575674D01*
X65527592Y-46823240D01*
X65386534Y-46823240D01*
X65405245Y-46801964D01*
X65529489Y-46501980D01*
X65468627Y-46312000D01*
X64467000Y-46312000D01*
X64213000Y-46312000D01*
X63211373Y-46312000D01*
X63150511Y-46501980D01*
X56845422Y-46501980D01*
X56661101Y-46317337D01*
X56245818Y-46144897D01*
X55796157Y-46144504D01*
X55380574Y-46316219D01*
X55062338Y-46633900D01*
X54889898Y-47049183D01*
X54889505Y-47498844D01*
X54017100Y-47498844D01*
X54017100Y-44958844D01*
X54889505Y-44958844D01*
X55061220Y-45374427D01*
X55378901Y-45692663D01*
X55794184Y-45865103D01*
X56243845Y-45865496D01*
X56659428Y-45693781D01*
X56977664Y-45376100D01*
X57150104Y-44960817D01*
X57150497Y-44511156D01*
X56978782Y-44095573D01*
X56661101Y-43777337D01*
X56245818Y-43604897D01*
X55796157Y-43604504D01*
X55380574Y-43776219D01*
X55062338Y-44093900D01*
X54889898Y-44509183D01*
X54889505Y-44958844D01*
X54017100Y-44958844D01*
X54017100Y-42418844D01*
X54889505Y-42418844D01*
X55061220Y-42834427D01*
X55378901Y-43152663D01*
X55794184Y-43325103D01*
X56243845Y-43325496D01*
X56659428Y-43153781D01*
X56977664Y-42836100D01*
X57150104Y-42420817D01*
X57150497Y-41971156D01*
X56978782Y-41555573D01*
X56661101Y-41237337D01*
X56506738Y-41173240D01*
X56977592Y-41173240D01*
X57072132Y-41402044D01*
X57193600Y-41523725D01*
X57193600Y-42850000D01*
X57200302Y-42883696D01*
X57199336Y-42918037D01*
X57569859Y-45100005D01*
X57522747Y-45147035D01*
X57427808Y-45375674D01*
X57427592Y-45623240D01*
X57522132Y-45852044D01*
X57697035Y-46027253D01*
X57925674Y-46122192D01*
X58173240Y-46122408D01*
X58402044Y-46027868D01*
X58562171Y-45868020D01*
X63150511Y-45868020D01*
X63211373Y-46058000D01*
X64213000Y-46058000D01*
X64213000Y-45055807D01*
X64467000Y-45055807D01*
X64467000Y-46058000D01*
X65468627Y-46058000D01*
X65529489Y-45868020D01*
X65405245Y-45568036D01*
X65088056Y-45207348D01*
X64656982Y-44995499D01*
X64467000Y-45055807D01*
X64213000Y-45055807D01*
X64023018Y-44995499D01*
X63591944Y-45207348D01*
X63274755Y-45568036D01*
X63150511Y-45868020D01*
X58562171Y-45868020D01*
X58577253Y-45852965D01*
X58672192Y-45624326D01*
X58672408Y-45376760D01*
X58577868Y-45147956D01*
X58402965Y-44972747D01*
X58370387Y-44959219D01*
X58370324Y-44958844D01*
X70129505Y-44958844D01*
X70301220Y-45374427D01*
X70618901Y-45692663D01*
X71034184Y-45865103D01*
X71483845Y-45865496D01*
X71899428Y-45693781D01*
X72217664Y-45376100D01*
X72390104Y-44960817D01*
X72390497Y-44511156D01*
X72218782Y-44095573D01*
X71901101Y-43777337D01*
X71485818Y-43604897D01*
X71036157Y-43604504D01*
X70620574Y-43776219D01*
X70302338Y-44093900D01*
X70129898Y-44509183D01*
X70129505Y-44958844D01*
X58370324Y-44958844D01*
X58006400Y-42815742D01*
X58006400Y-41773240D01*
X58377592Y-41773240D01*
X58472132Y-42002044D01*
X58593600Y-42123725D01*
X58593600Y-43476306D01*
X58522747Y-43547035D01*
X58427808Y-43775674D01*
X58427592Y-44023240D01*
X58522132Y-44252044D01*
X58697035Y-44427253D01*
X58925674Y-44522192D01*
X59173240Y-44522408D01*
X59402044Y-44427868D01*
X59577253Y-44252965D01*
X59672192Y-44024326D01*
X59672408Y-43776760D01*
X59577868Y-43547956D01*
X59406400Y-43376188D01*
X59406400Y-42123607D01*
X59527253Y-42002965D01*
X59622192Y-41774326D01*
X59622408Y-41526760D01*
X59527868Y-41297956D01*
X59352965Y-41122747D01*
X59124326Y-41027808D01*
X58876760Y-41027592D01*
X58647956Y-41122132D01*
X58472747Y-41297035D01*
X58377808Y-41525674D01*
X58377592Y-41773240D01*
X58006400Y-41773240D01*
X58006400Y-41523607D01*
X58127253Y-41402965D01*
X58222192Y-41174326D01*
X58222408Y-40926760D01*
X58127868Y-40697956D01*
X57952965Y-40522747D01*
X57724326Y-40427808D01*
X57476760Y-40427592D01*
X57247956Y-40522132D01*
X57072747Y-40697035D01*
X56977808Y-40925674D01*
X56977592Y-41173240D01*
X56506738Y-41173240D01*
X56245818Y-41064897D01*
X55796157Y-41064504D01*
X55380574Y-41236219D01*
X55062338Y-41553900D01*
X54889898Y-41969183D01*
X54889505Y-42418844D01*
X54017100Y-42418844D01*
X54017100Y-39878844D01*
X54889505Y-39878844D01*
X55061220Y-40294427D01*
X55378901Y-40612663D01*
X55794184Y-40785103D01*
X56243845Y-40785496D01*
X56659428Y-40613781D01*
X56977664Y-40296100D01*
X57150104Y-39880817D01*
X57150497Y-39431156D01*
X56978782Y-39015573D01*
X56888367Y-38925000D01*
X57215127Y-38925000D01*
X57215127Y-39625000D01*
X57234609Y-39728539D01*
X57295801Y-39823634D01*
X57389168Y-39887429D01*
X57500000Y-39909873D01*
X58335137Y-39909873D01*
X59734649Y-41309385D01*
X59669316Y-42550722D01*
X59522747Y-42697035D01*
X59427808Y-42925674D01*
X59427592Y-43173240D01*
X59522132Y-43402044D01*
X59697035Y-43577253D01*
X59925674Y-43672192D01*
X60173240Y-43672408D01*
X60402044Y-43577868D01*
X60577253Y-43402965D01*
X60672192Y-43174326D01*
X60672408Y-42926760D01*
X60577868Y-42697956D01*
X60480618Y-42600536D01*
X60555838Y-41171360D01*
X60554285Y-41160633D01*
X60556400Y-41150000D01*
X60547449Y-41105000D01*
X60648474Y-41105000D01*
X60734444Y-41537203D01*
X60979268Y-41903606D01*
X61345671Y-42148430D01*
X61777874Y-42234400D01*
X61822126Y-42234400D01*
X62254329Y-42148430D01*
X62300919Y-42117300D01*
X62428206Y-42274715D01*
X62427808Y-42275674D01*
X62427592Y-42523240D01*
X62522132Y-42752044D01*
X62607474Y-42837535D01*
X62254329Y-42601570D01*
X61822126Y-42515600D01*
X61777874Y-42515600D01*
X61345671Y-42601570D01*
X60979268Y-42846394D01*
X60734444Y-43212797D01*
X60648474Y-43645000D01*
X60734444Y-44077203D01*
X60979268Y-44443606D01*
X61345671Y-44688430D01*
X61777874Y-44774400D01*
X61822126Y-44774400D01*
X62254329Y-44688430D01*
X62620732Y-44443606D01*
X62865556Y-44077203D01*
X62951526Y-43645000D01*
X63188474Y-43645000D01*
X63274444Y-44077203D01*
X63519268Y-44443606D01*
X63885671Y-44688430D01*
X64317874Y-44774400D01*
X64362126Y-44774400D01*
X64794329Y-44688430D01*
X65160732Y-44443606D01*
X65405556Y-44077203D01*
X65491526Y-43645000D01*
X65405556Y-43212797D01*
X65160732Y-42846394D01*
X64794329Y-42601570D01*
X64362126Y-42515600D01*
X64317874Y-42515600D01*
X63885671Y-42601570D01*
X63519268Y-42846394D01*
X63274444Y-43212797D01*
X63188474Y-43645000D01*
X62951526Y-43645000D01*
X62865556Y-43212797D01*
X62629669Y-42859769D01*
X62697035Y-42927253D01*
X62925674Y-43022192D01*
X63173240Y-43022408D01*
X63402044Y-42927868D01*
X63577253Y-42752965D01*
X63672192Y-42524326D01*
X63672284Y-42418844D01*
X70129505Y-42418844D01*
X70301220Y-42834427D01*
X70618901Y-43152663D01*
X71034184Y-43325103D01*
X71483845Y-43325496D01*
X71899428Y-43153781D01*
X72217664Y-42836100D01*
X72390104Y-42420817D01*
X72390497Y-41971156D01*
X72218782Y-41555573D01*
X71901101Y-41237337D01*
X71485818Y-41064897D01*
X71036157Y-41064504D01*
X70620574Y-41236219D01*
X70302338Y-41553900D01*
X70129898Y-41969183D01*
X70129505Y-42418844D01*
X63672284Y-42418844D01*
X63672408Y-42276760D01*
X63577868Y-42047956D01*
X63402965Y-41872747D01*
X63174326Y-41777808D01*
X63071608Y-41777718D01*
X62867840Y-41525721D01*
X62951526Y-41105000D01*
X63188474Y-41105000D01*
X63274444Y-41537203D01*
X63519268Y-41903606D01*
X63885671Y-42148430D01*
X64317874Y-42234400D01*
X64362126Y-42234400D01*
X64794329Y-42148430D01*
X65160732Y-41903606D01*
X65405556Y-41537203D01*
X65491526Y-41105000D01*
X65405556Y-40672797D01*
X65160732Y-40306394D01*
X64794329Y-40061570D01*
X64362126Y-39975600D01*
X64317874Y-39975600D01*
X63885671Y-40061570D01*
X63519268Y-40306394D01*
X63274444Y-40672797D01*
X63188474Y-41105000D01*
X62951526Y-41105000D01*
X62865556Y-40672797D01*
X62620732Y-40306394D01*
X62254329Y-40061570D01*
X61822126Y-39975600D01*
X61777874Y-39975600D01*
X61345671Y-40061570D01*
X60979268Y-40306394D01*
X60734444Y-40672797D01*
X60648474Y-41105000D01*
X60547449Y-41105000D01*
X60542977Y-41082518D01*
X60533120Y-41014426D01*
X60527580Y-41005109D01*
X60525465Y-40994478D01*
X60487243Y-40937276D01*
X60452075Y-40878133D01*
X60443390Y-40871645D01*
X60437368Y-40862632D01*
X59453580Y-39878844D01*
X70129505Y-39878844D01*
X70301220Y-40294427D01*
X70618901Y-40612663D01*
X71034184Y-40785103D01*
X71483845Y-40785496D01*
X71899428Y-40613781D01*
X72217664Y-40296100D01*
X72390104Y-39880817D01*
X72390497Y-39431156D01*
X72218782Y-39015573D01*
X71901101Y-38697337D01*
X71485818Y-38524897D01*
X71036157Y-38524504D01*
X70620574Y-38696219D01*
X70302338Y-39013900D01*
X70129898Y-39429183D01*
X70129505Y-39878844D01*
X59453580Y-39878844D01*
X59084873Y-39510137D01*
X59084873Y-38925000D01*
X59065391Y-38821461D01*
X59004199Y-38726366D01*
X58910832Y-38662571D01*
X58800000Y-38640127D01*
X57500000Y-38640127D01*
X57396461Y-38659609D01*
X57301366Y-38720801D01*
X57237571Y-38814168D01*
X57215127Y-38925000D01*
X56888367Y-38925000D01*
X56661101Y-38697337D01*
X56342398Y-38565000D01*
X60648474Y-38565000D01*
X60734444Y-38997203D01*
X60979268Y-39363606D01*
X61345671Y-39608430D01*
X61777874Y-39694400D01*
X61822126Y-39694400D01*
X62254329Y-39608430D01*
X62620732Y-39363606D01*
X62865556Y-38997203D01*
X62951526Y-38565000D01*
X63188474Y-38565000D01*
X63274444Y-38997203D01*
X63519268Y-39363606D01*
X63885671Y-39608430D01*
X64317874Y-39694400D01*
X64362126Y-39694400D01*
X64794329Y-39608430D01*
X65160732Y-39363606D01*
X65405556Y-38997203D01*
X65491526Y-38565000D01*
X65405556Y-38132797D01*
X65160732Y-37766394D01*
X64794329Y-37521570D01*
X64362126Y-37435600D01*
X64317874Y-37435600D01*
X63885671Y-37521570D01*
X63519268Y-37766394D01*
X63274444Y-38132797D01*
X63188474Y-38565000D01*
X62951526Y-38565000D01*
X62865556Y-38132797D01*
X62620732Y-37766394D01*
X62254329Y-37521570D01*
X61822126Y-37435600D01*
X61777874Y-37435600D01*
X61345671Y-37521570D01*
X60979268Y-37766394D01*
X60734444Y-38132797D01*
X60648474Y-38565000D01*
X56342398Y-38565000D01*
X56245818Y-38524897D01*
X55796157Y-38524504D01*
X55380574Y-38696219D01*
X55062338Y-39013900D01*
X54889898Y-39429183D01*
X54889505Y-39878844D01*
X54017100Y-39878844D01*
X54017100Y-37338844D01*
X54889505Y-37338844D01*
X55061220Y-37754427D01*
X55378901Y-38072663D01*
X55794184Y-38245103D01*
X56243845Y-38245496D01*
X56659428Y-38073781D01*
X56977664Y-37756100D01*
X57063776Y-37548719D01*
X57215127Y-37552661D01*
X57215127Y-37725000D01*
X57234609Y-37828539D01*
X57295801Y-37923634D01*
X57389168Y-37987429D01*
X57500000Y-38009873D01*
X58800000Y-38009873D01*
X58903539Y-37990391D01*
X58998634Y-37929199D01*
X59062429Y-37835832D01*
X59084873Y-37725000D01*
X59084873Y-37338844D01*
X70129505Y-37338844D01*
X70301220Y-37754427D01*
X70618901Y-38072663D01*
X71034184Y-38245103D01*
X71483845Y-38245496D01*
X71899428Y-38073781D01*
X72217664Y-37756100D01*
X72390104Y-37340817D01*
X72390497Y-36891156D01*
X72218782Y-36475573D01*
X71901101Y-36157337D01*
X71485818Y-35984897D01*
X71036157Y-35984504D01*
X70620574Y-36156219D01*
X70302338Y-36473900D01*
X70129898Y-36889183D01*
X70129505Y-37338844D01*
X59084873Y-37338844D01*
X59084873Y-37025000D01*
X59065391Y-36921461D01*
X59004199Y-36826366D01*
X58910832Y-36762571D01*
X58800000Y-36740127D01*
X57500000Y-36740127D01*
X57467894Y-36746168D01*
X57086485Y-36736236D01*
X56978782Y-36475573D01*
X56661101Y-36157337D01*
X56245818Y-35984897D01*
X55796157Y-35984504D01*
X55380574Y-36156219D01*
X55062338Y-36473900D01*
X54889898Y-36889183D01*
X54889505Y-37338844D01*
X54017100Y-37338844D01*
X54017100Y-34798844D01*
X54889505Y-34798844D01*
X55061220Y-35214427D01*
X55378901Y-35532663D01*
X55794184Y-35705103D01*
X56243845Y-35705496D01*
X56659428Y-35533781D01*
X56968748Y-35225000D01*
X57215127Y-35225000D01*
X57215127Y-35925000D01*
X57234609Y-36028539D01*
X57295801Y-36123634D01*
X57389168Y-36187429D01*
X57500000Y-36209873D01*
X58800000Y-36209873D01*
X58903539Y-36190391D01*
X58998634Y-36129199D01*
X59062429Y-36035832D01*
X59069739Y-35999734D01*
X59197035Y-36127253D01*
X59425674Y-36222192D01*
X59673240Y-36222408D01*
X59902044Y-36127868D01*
X60077253Y-35952965D01*
X60172192Y-35724326D01*
X60172408Y-35476760D01*
X60077868Y-35247956D01*
X60005040Y-35175000D01*
X60665127Y-35175000D01*
X60665127Y-36875000D01*
X60684609Y-36978539D01*
X60745801Y-37073634D01*
X60839168Y-37137429D01*
X60950000Y-37159873D01*
X62650000Y-37159873D01*
X62753539Y-37140391D01*
X62848634Y-37079199D01*
X62912429Y-36985832D01*
X62934873Y-36875000D01*
X62934873Y-35175000D01*
X62915391Y-35071461D01*
X62854199Y-34976366D01*
X62760832Y-34912571D01*
X62650000Y-34890127D01*
X60950000Y-34890127D01*
X60846461Y-34909609D01*
X60751366Y-34970801D01*
X60687571Y-35064168D01*
X60665127Y-35175000D01*
X60005040Y-35175000D01*
X59902965Y-35072747D01*
X59674326Y-34977808D01*
X59426760Y-34977592D01*
X59197956Y-35072132D01*
X59101319Y-35168600D01*
X59074261Y-35168600D01*
X59065391Y-35121461D01*
X59004199Y-35026366D01*
X58910832Y-34962571D01*
X58800000Y-34940127D01*
X57500000Y-34940127D01*
X57396461Y-34959609D01*
X57301366Y-35020801D01*
X57237571Y-35114168D01*
X57215127Y-35225000D01*
X56968748Y-35225000D01*
X56977664Y-35216100D01*
X57150104Y-34800817D01*
X57150105Y-34798844D01*
X70129505Y-34798844D01*
X70301220Y-35214427D01*
X70618901Y-35532663D01*
X71034184Y-35705103D01*
X71483845Y-35705496D01*
X71899428Y-35533781D01*
X72217664Y-35216100D01*
X72390104Y-34800817D01*
X72390497Y-34351156D01*
X72218782Y-33935573D01*
X71901101Y-33617337D01*
X71485818Y-33444897D01*
X71036157Y-33444504D01*
X70620574Y-33616219D01*
X70302338Y-33933900D01*
X70129898Y-34349183D01*
X70129505Y-34798844D01*
X57150105Y-34798844D01*
X57150389Y-34474347D01*
X57358358Y-34266378D01*
X57389168Y-34287429D01*
X57500000Y-34309873D01*
X58800000Y-34309873D01*
X58903539Y-34290391D01*
X58998634Y-34229199D01*
X59062429Y-34135832D01*
X59084873Y-34025000D01*
X59084873Y-33325000D01*
X59065391Y-33221461D01*
X59004199Y-33126366D01*
X58910832Y-33062571D01*
X58800000Y-33040127D01*
X57500000Y-33040127D01*
X57396461Y-33059609D01*
X57301366Y-33120801D01*
X57237571Y-33214168D01*
X57220318Y-33299368D01*
X57219477Y-33299535D01*
X57087632Y-33387632D01*
X56759428Y-33715836D01*
X56661101Y-33617337D01*
X56245818Y-33444897D01*
X55796157Y-33444504D01*
X55380574Y-33616219D01*
X55062338Y-33933900D01*
X54889898Y-34349183D01*
X54889505Y-34798844D01*
X54017100Y-34798844D01*
X54017100Y-32940674D01*
X55293932Y-32940674D01*
X55388251Y-33120593D01*
X55851779Y-33279717D01*
X56340916Y-33249345D01*
X56651751Y-33120593D01*
X56746070Y-32940674D01*
X56020001Y-32214605D01*
X55293932Y-32940674D01*
X54017100Y-32940674D01*
X54017100Y-31866778D01*
X54775284Y-31866778D01*
X54805656Y-32355915D01*
X54934408Y-32666750D01*
X55114327Y-32761069D01*
X55840396Y-32035000D01*
X56199606Y-32035000D01*
X56925675Y-32761069D01*
X57105594Y-32666750D01*
X57264718Y-32203222D01*
X57236755Y-31752874D01*
X59665600Y-31752874D01*
X59665600Y-31797126D01*
X59751570Y-32229329D01*
X59996394Y-32595732D01*
X60362797Y-32840556D01*
X60795000Y-32926526D01*
X61227203Y-32840556D01*
X61593606Y-32595732D01*
X61838430Y-32229329D01*
X61924400Y-31797126D01*
X61924400Y-31752874D01*
X62205600Y-31752874D01*
X62205600Y-31797126D01*
X62291570Y-32229329D01*
X62536394Y-32595732D01*
X62902797Y-32840556D01*
X63335000Y-32926526D01*
X63767203Y-32840556D01*
X64133606Y-32595732D01*
X64378430Y-32229329D01*
X64464400Y-31797126D01*
X64464400Y-31752874D01*
X64378430Y-31320671D01*
X64133606Y-30954268D01*
X64089804Y-30925000D01*
X64740127Y-30925000D01*
X64740127Y-32625000D01*
X64759609Y-32728539D01*
X64820801Y-32823634D01*
X64914168Y-32887429D01*
X65025000Y-32909873D01*
X66725000Y-32909873D01*
X66828539Y-32890391D01*
X66923634Y-32829199D01*
X66987429Y-32735832D01*
X67009873Y-32625000D01*
X67009873Y-32258844D01*
X70129505Y-32258844D01*
X70301220Y-32674427D01*
X70618901Y-32992663D01*
X71034184Y-33165103D01*
X71483845Y-33165496D01*
X71899428Y-32993781D01*
X72217664Y-32676100D01*
X72390104Y-32260817D01*
X72390497Y-31811156D01*
X72218782Y-31395573D01*
X71901101Y-31077337D01*
X71485818Y-30904897D01*
X71036157Y-30904504D01*
X70620574Y-31076219D01*
X70302338Y-31393900D01*
X70129898Y-31809183D01*
X70129505Y-32258844D01*
X67009873Y-32258844D01*
X67009873Y-30925000D01*
X66990391Y-30821461D01*
X66929199Y-30726366D01*
X66835832Y-30662571D01*
X66725000Y-30640127D01*
X65025000Y-30640127D01*
X64921461Y-30659609D01*
X64826366Y-30720801D01*
X64762571Y-30814168D01*
X64740127Y-30925000D01*
X64089804Y-30925000D01*
X63767203Y-30709444D01*
X63335000Y-30623474D01*
X62902797Y-30709444D01*
X62536394Y-30954268D01*
X62291570Y-31320671D01*
X62205600Y-31752874D01*
X61924400Y-31752874D01*
X61838430Y-31320671D01*
X61593606Y-30954268D01*
X61227203Y-30709444D01*
X60795000Y-30623474D01*
X60362797Y-30709444D01*
X59996394Y-30954268D01*
X59751570Y-31320671D01*
X59665600Y-31752874D01*
X57236755Y-31752874D01*
X57234346Y-31714085D01*
X57105594Y-31403250D01*
X56925675Y-31308931D01*
X56199606Y-32035000D01*
X55840396Y-32035000D01*
X55114327Y-31308931D01*
X54934408Y-31403250D01*
X54775284Y-31866778D01*
X54017100Y-31866778D01*
X54017100Y-31129326D01*
X55293932Y-31129326D01*
X56020001Y-31855395D01*
X56746070Y-31129326D01*
X56651751Y-30949407D01*
X56188223Y-30790283D01*
X55699086Y-30820655D01*
X55388251Y-30949407D01*
X55293932Y-31129326D01*
X54017100Y-31129326D01*
X54017100Y-31052282D01*
X54053257Y-30695854D01*
X54152046Y-30378681D01*
X54308565Y-30090967D01*
X54515941Y-29839741D01*
X54767167Y-29632365D01*
X55054879Y-29475846D01*
X55372055Y-29377057D01*
X55728482Y-29340900D01*
X71697718Y-29340900D01*
X72054146Y-29377057D01*
M02*
