G04 #@! TF.FileFunction,Profile,NP*
%FSLAX46Y46*%
G04 Gerber Fmt 4.6, Leading zero omitted, Abs format (unit mm)*
G04 Created by KiCad (PCBNEW 4.0.6) date 04/01/17 00:44:48*
%MOMM*%
%LPD*%
G01*
G04 APERTURE LIST*
%ADD10C,0.100000*%
G04 APERTURE END LIST*
D10*
X54596200Y-29379300D02*
X54935900Y-29194500D01*
X54055500Y-66553800D02*
X53870700Y-66214100D01*
X53753900Y-65839100D02*
X53713100Y-65436900D01*
X53870700Y-30259700D02*
X54055500Y-29920000D01*
X55310900Y-29077700D02*
X55713100Y-29036900D01*
X55713100Y-29036900D02*
X55713100Y-29036900D01*
X53870700Y-66214100D02*
X53753900Y-65839100D01*
X53713100Y-65436900D02*
X53713100Y-31036900D01*
X53753900Y-30634700D02*
X53870700Y-30259700D01*
X54935900Y-29194500D02*
X55310900Y-29077700D01*
X53713100Y-31036900D02*
X53753900Y-30634700D01*
X54300000Y-29623800D02*
X54596200Y-29379300D01*
X54055500Y-29920000D02*
X54300000Y-29623800D01*
X54596200Y-67094500D02*
X54300000Y-66850000D01*
X54935900Y-67279300D02*
X54596200Y-67094500D01*
X71713100Y-67436900D02*
X55713100Y-67436900D01*
X71713100Y-29036900D02*
X72115300Y-29077700D01*
X73126200Y-29623800D02*
X73370700Y-29920000D01*
X55713100Y-67436900D02*
X55310900Y-67396100D01*
X73555500Y-66214100D02*
X73370700Y-66553800D01*
X72830000Y-67094500D02*
X72490300Y-67279300D01*
X73672300Y-30634700D02*
X73713100Y-31036900D01*
X72115300Y-67396100D02*
X71713100Y-67436900D01*
X72490300Y-67279300D02*
X72115300Y-67396100D01*
X72830000Y-29379300D02*
X73126200Y-29623800D01*
X73370700Y-66553800D02*
X73126200Y-66850000D01*
X73713100Y-31036900D02*
X73713100Y-65436900D01*
X73672300Y-65839100D02*
X73555500Y-66214100D01*
X73713100Y-65436900D02*
X73672300Y-65839100D01*
X73370700Y-29920000D02*
X73555500Y-30259700D01*
X55310900Y-67396100D02*
X54935900Y-67279300D01*
X73126200Y-66850000D02*
X72830000Y-67094500D01*
X73555500Y-30259700D02*
X73672300Y-30634700D01*
X72490300Y-29194500D02*
X72830000Y-29379300D01*
X72115300Y-29077700D02*
X72490300Y-29194500D01*
X55713100Y-29036900D02*
X71713100Y-29036900D01*
X54300000Y-66850000D02*
X54055500Y-66553800D01*
M02*
