G04 #@! TF.FileFunction,Legend,Bot*
%FSLAX46Y46*%
G04 Gerber Fmt 4.6, Leading zero omitted, Abs format (unit mm)*
G04 Created by KiCad (PCBNEW 4.0.6) date 04/01/17 00:44:48*
%MOMM*%
%LPD*%
G01*
G04 APERTURE LIST*
%ADD10C,0.100000*%
%ADD11C,0.075000*%
%ADD12C,0.150000*%
%ADD13C,0.120000*%
G04 APERTURE END LIST*
D10*
D11*
X59261904Y-40026190D02*
X58976190Y-40026190D01*
X59119047Y-40526190D02*
X59119047Y-40026190D01*
X58928571Y-40573810D02*
X58547619Y-40573810D01*
X58500000Y-40026190D02*
X58214286Y-40026190D01*
X58357143Y-40526190D02*
X58357143Y-40026190D01*
X58095238Y-40026190D02*
X57761905Y-40526190D01*
X57761905Y-40026190D02*
X58095238Y-40526190D01*
X59226190Y-33678572D02*
X59226190Y-33964286D01*
X59726190Y-33821429D02*
X59226190Y-33821429D01*
X59773810Y-34011905D02*
X59773810Y-34392857D01*
X59726190Y-34797619D02*
X59488095Y-34630952D01*
X59726190Y-34511905D02*
X59226190Y-34511905D01*
X59226190Y-34702381D01*
X59250000Y-34750000D01*
X59273810Y-34773809D01*
X59321429Y-34797619D01*
X59392857Y-34797619D01*
X59440476Y-34773809D01*
X59464286Y-34750000D01*
X59488095Y-34702381D01*
X59488095Y-34511905D01*
X59226190Y-34964286D02*
X59726190Y-35297619D01*
X59226190Y-35297619D02*
X59726190Y-34964286D01*
X56976190Y-52961906D02*
X56976190Y-53271429D01*
X57166667Y-53104763D01*
X57166667Y-53176191D01*
X57190476Y-53223810D01*
X57214286Y-53247620D01*
X57261905Y-53271429D01*
X57380952Y-53271429D01*
X57428571Y-53247620D01*
X57452381Y-53223810D01*
X57476190Y-53176191D01*
X57476190Y-53033334D01*
X57452381Y-52985715D01*
X57428571Y-52961906D01*
X57428571Y-53485715D02*
X57452381Y-53509524D01*
X57476190Y-53485715D01*
X57452381Y-53461905D01*
X57428571Y-53485715D01*
X57476190Y-53485715D01*
X56976190Y-53676191D02*
X56976190Y-53985714D01*
X57166667Y-53819048D01*
X57166667Y-53890476D01*
X57190476Y-53938095D01*
X57214286Y-53961905D01*
X57261905Y-53985714D01*
X57380952Y-53985714D01*
X57428571Y-53961905D01*
X57452381Y-53938095D01*
X57476190Y-53890476D01*
X57476190Y-53747619D01*
X57452381Y-53700000D01*
X57428571Y-53676191D01*
X56976190Y-54128571D02*
X57476190Y-54295238D01*
X56976190Y-54461904D01*
X66300000Y-62619047D02*
X66276190Y-62571428D01*
X66276190Y-62500000D01*
X66300000Y-62428571D01*
X66347619Y-62380952D01*
X66395238Y-62357143D01*
X66490476Y-62333333D01*
X66561905Y-62333333D01*
X66657143Y-62357143D01*
X66704762Y-62380952D01*
X66752381Y-62428571D01*
X66776190Y-62500000D01*
X66776190Y-62547619D01*
X66752381Y-62619047D01*
X66728571Y-62642857D01*
X66561905Y-62642857D01*
X66561905Y-62547619D01*
X66776190Y-62857143D02*
X66276190Y-62857143D01*
X66776190Y-63142857D01*
X66276190Y-63142857D01*
X66776190Y-63380953D02*
X66276190Y-63380953D01*
X66276190Y-63500000D01*
X66300000Y-63571429D01*
X66347619Y-63619048D01*
X66395238Y-63642857D01*
X66490476Y-63666667D01*
X66561905Y-63666667D01*
X66657143Y-63642857D01*
X66704762Y-63619048D01*
X66752381Y-63571429D01*
X66776190Y-63500000D01*
X66776190Y-63380953D01*
X57426190Y-60664286D02*
X56926190Y-60664286D01*
X57283333Y-60830952D01*
X56926190Y-60997619D01*
X57426190Y-60997619D01*
X57426190Y-61235715D02*
X56926190Y-61235715D01*
X57402381Y-61450000D02*
X57426190Y-61521429D01*
X57426190Y-61640476D01*
X57402381Y-61688095D01*
X57378571Y-61711905D01*
X57330952Y-61735714D01*
X57283333Y-61735714D01*
X57235714Y-61711905D01*
X57211905Y-61688095D01*
X57188095Y-61640476D01*
X57164286Y-61545238D01*
X57140476Y-61497619D01*
X57116667Y-61473810D01*
X57069048Y-61450000D01*
X57021429Y-61450000D01*
X56973810Y-61473810D01*
X56950000Y-61497619D01*
X56926190Y-61545238D01*
X56926190Y-61664286D01*
X56950000Y-61735714D01*
X56926190Y-62045238D02*
X56926190Y-62140476D01*
X56950000Y-62188095D01*
X56997619Y-62235714D01*
X57092857Y-62259523D01*
X57259524Y-62259523D01*
X57354762Y-62235714D01*
X57402381Y-62188095D01*
X57426190Y-62140476D01*
X57426190Y-62045238D01*
X57402381Y-61997619D01*
X57354762Y-61950000D01*
X57259524Y-61926190D01*
X57092857Y-61926190D01*
X56997619Y-61950000D01*
X56950000Y-61997619D01*
X56926190Y-62045238D01*
X57376190Y-57914286D02*
X56876190Y-57914286D01*
X57233333Y-58080952D01*
X56876190Y-58247619D01*
X57376190Y-58247619D01*
X56876190Y-58580953D02*
X56876190Y-58676191D01*
X56900000Y-58723810D01*
X56947619Y-58771429D01*
X57042857Y-58795238D01*
X57209524Y-58795238D01*
X57304762Y-58771429D01*
X57352381Y-58723810D01*
X57376190Y-58676191D01*
X57376190Y-58580953D01*
X57352381Y-58533334D01*
X57304762Y-58485715D01*
X57209524Y-58461905D01*
X57042857Y-58461905D01*
X56947619Y-58485715D01*
X56900000Y-58533334D01*
X56876190Y-58580953D01*
X57352381Y-58985715D02*
X57376190Y-59057144D01*
X57376190Y-59176191D01*
X57352381Y-59223810D01*
X57328571Y-59247620D01*
X57280952Y-59271429D01*
X57233333Y-59271429D01*
X57185714Y-59247620D01*
X57161905Y-59223810D01*
X57138095Y-59176191D01*
X57114286Y-59080953D01*
X57090476Y-59033334D01*
X57066667Y-59009525D01*
X57019048Y-58985715D01*
X56971429Y-58985715D01*
X56923810Y-59009525D01*
X56900000Y-59033334D01*
X56876190Y-59080953D01*
X56876190Y-59200001D01*
X56900000Y-59271429D01*
X57376190Y-59485715D02*
X56876190Y-59485715D01*
D12*
X69439286Y-37921430D02*
X68689286Y-37921430D01*
X68975000Y-37921430D02*
X68939286Y-37992859D01*
X68939286Y-38135716D01*
X68975000Y-38207145D01*
X69010714Y-38242859D01*
X69082143Y-38278573D01*
X69296429Y-38278573D01*
X69367857Y-38242859D01*
X69403571Y-38207145D01*
X69439286Y-38135716D01*
X69439286Y-37992859D01*
X69403571Y-37921430D01*
X69439286Y-38600001D02*
X68939286Y-38600001D01*
X69082143Y-38600001D02*
X69010714Y-38635716D01*
X68975000Y-38671430D01*
X68939286Y-38742859D01*
X68939286Y-38814287D01*
X69439286Y-39171430D02*
X69403571Y-39100002D01*
X69367857Y-39064287D01*
X69296429Y-39028573D01*
X69082143Y-39028573D01*
X69010714Y-39064287D01*
X68975000Y-39100002D01*
X68939286Y-39171430D01*
X68939286Y-39278573D01*
X68975000Y-39350002D01*
X69010714Y-39385716D01*
X69082143Y-39421430D01*
X69296429Y-39421430D01*
X69367857Y-39385716D01*
X69403571Y-39350002D01*
X69439286Y-39278573D01*
X69439286Y-39171430D01*
X69439286Y-39850001D02*
X69403571Y-39778573D01*
X69367857Y-39742858D01*
X69296429Y-39707144D01*
X69082143Y-39707144D01*
X69010714Y-39742858D01*
X68975000Y-39778573D01*
X68939286Y-39850001D01*
X68939286Y-39957144D01*
X68975000Y-40028573D01*
X69010714Y-40064287D01*
X69082143Y-40100001D01*
X69296429Y-40100001D01*
X69367857Y-40064287D01*
X69403571Y-40028573D01*
X69439286Y-39957144D01*
X69439286Y-39850001D01*
X69439286Y-40421429D02*
X68689286Y-40421429D01*
X69153571Y-40492858D02*
X69439286Y-40707144D01*
X68939286Y-40707144D02*
X69225000Y-40421429D01*
X69403571Y-41314287D02*
X69439286Y-41242858D01*
X69439286Y-41100001D01*
X69403571Y-41028572D01*
X69332143Y-40992858D01*
X69046429Y-40992858D01*
X68975000Y-41028572D01*
X68939286Y-41100001D01*
X68939286Y-41242858D01*
X68975000Y-41314287D01*
X69046429Y-41350001D01*
X69117857Y-41350001D01*
X69189286Y-40992858D01*
X69367857Y-41671429D02*
X69403571Y-41707144D01*
X69439286Y-41671429D01*
X69403571Y-41635715D01*
X69367857Y-41671429D01*
X69439286Y-41671429D01*
X68939286Y-41921430D02*
X68939286Y-42207144D01*
X68689286Y-42028572D02*
X69332143Y-42028572D01*
X69403571Y-42064287D01*
X69439286Y-42135715D01*
X69439286Y-42207144D01*
X69367857Y-42457143D02*
X69403571Y-42492858D01*
X69439286Y-42457143D01*
X69403571Y-42421429D01*
X69367857Y-42457143D01*
X69439286Y-42457143D01*
X69439286Y-42814286D02*
X68689286Y-42814286D01*
X69439286Y-43135715D02*
X69046429Y-43135715D01*
X68975000Y-43100001D01*
X68939286Y-43028572D01*
X68939286Y-42921429D01*
X68975000Y-42850001D01*
X69010714Y-42814286D01*
X69403571Y-43778572D02*
X69439286Y-43707143D01*
X69439286Y-43564286D01*
X69403571Y-43492857D01*
X69332143Y-43457143D01*
X69046429Y-43457143D01*
X68975000Y-43492857D01*
X68939286Y-43564286D01*
X68939286Y-43707143D01*
X68975000Y-43778572D01*
X69046429Y-43814286D01*
X69117857Y-43814286D01*
X69189286Y-43457143D01*
X69439286Y-44457143D02*
X68689286Y-44457143D01*
X69403571Y-44457143D02*
X69439286Y-44385714D01*
X69439286Y-44242857D01*
X69403571Y-44171429D01*
X69367857Y-44135714D01*
X69296429Y-44100000D01*
X69082143Y-44100000D01*
X69010714Y-44135714D01*
X68975000Y-44171429D01*
X68939286Y-44242857D01*
X68939286Y-44385714D01*
X68975000Y-44457143D01*
X69439286Y-44814285D02*
X68939286Y-44814285D01*
X69082143Y-44814285D02*
X69010714Y-44850000D01*
X68975000Y-44885714D01*
X68939286Y-44957143D01*
X68939286Y-45028571D01*
X69439286Y-45278571D02*
X68939286Y-45278571D01*
X68689286Y-45278571D02*
X68725000Y-45242857D01*
X68760714Y-45278571D01*
X68725000Y-45314286D01*
X68689286Y-45278571D01*
X68760714Y-45278571D01*
X69403571Y-45957143D02*
X69439286Y-45885714D01*
X69439286Y-45742857D01*
X69403571Y-45671429D01*
X69367857Y-45635714D01*
X69296429Y-45600000D01*
X69082143Y-45600000D01*
X69010714Y-45635714D01*
X68975000Y-45671429D01*
X68939286Y-45742857D01*
X68939286Y-45885714D01*
X68975000Y-45957143D01*
X69439286Y-46278571D02*
X68689286Y-46278571D01*
X69153571Y-46350000D02*
X69439286Y-46564286D01*
X68939286Y-46564286D02*
X69225000Y-46278571D01*
X69082143Y-47350000D02*
X69046429Y-47314286D01*
X69010714Y-47242857D01*
X69010714Y-47171429D01*
X69046429Y-47100000D01*
X69082143Y-47064286D01*
X69153571Y-47028572D01*
X69225000Y-47028572D01*
X69296429Y-47064286D01*
X69332143Y-47100000D01*
X69367857Y-47171429D01*
X69367857Y-47242857D01*
X69332143Y-47314286D01*
X69296429Y-47350000D01*
X69010714Y-47350000D02*
X69296429Y-47350000D01*
X69332143Y-47385714D01*
X69332143Y-47421429D01*
X69296429Y-47492857D01*
X69225000Y-47528572D01*
X69046429Y-47528572D01*
X68939286Y-47457143D01*
X68867857Y-47350000D01*
X68832143Y-47207143D01*
X68867857Y-47064286D01*
X68939286Y-46957143D01*
X69046429Y-46885714D01*
X69189286Y-46850000D01*
X69332143Y-46885714D01*
X69439286Y-46957143D01*
X69510714Y-47064286D01*
X69546429Y-47207143D01*
X69510714Y-47350000D01*
X69439286Y-47457143D01*
X68939286Y-48171429D02*
X69546429Y-48171429D01*
X69617857Y-48135715D01*
X69653571Y-48100000D01*
X69689286Y-48028572D01*
X69689286Y-47921429D01*
X69653571Y-47850000D01*
X69403571Y-48171429D02*
X69439286Y-48100000D01*
X69439286Y-47957143D01*
X69403571Y-47885715D01*
X69367857Y-47850000D01*
X69296429Y-47814286D01*
X69082143Y-47814286D01*
X69010714Y-47850000D01*
X68975000Y-47885715D01*
X68939286Y-47957143D01*
X68939286Y-48100000D01*
X68975000Y-48171429D01*
X69439286Y-48528571D02*
X68939286Y-48528571D01*
X69010714Y-48528571D02*
X68975000Y-48564286D01*
X68939286Y-48635714D01*
X68939286Y-48742857D01*
X68975000Y-48814286D01*
X69046429Y-48850000D01*
X69439286Y-48850000D01*
X69046429Y-48850000D02*
X68975000Y-48885714D01*
X68939286Y-48957143D01*
X68939286Y-49064286D01*
X68975000Y-49135714D01*
X69046429Y-49171429D01*
X69439286Y-49171429D01*
X69439286Y-49850000D02*
X69046429Y-49850000D01*
X68975000Y-49814286D01*
X68939286Y-49742857D01*
X68939286Y-49600000D01*
X68975000Y-49528571D01*
X69403571Y-49850000D02*
X69439286Y-49778571D01*
X69439286Y-49600000D01*
X69403571Y-49528571D01*
X69332143Y-49492857D01*
X69260714Y-49492857D01*
X69189286Y-49528571D01*
X69153571Y-49600000D01*
X69153571Y-49778571D01*
X69117857Y-49850000D01*
X69439286Y-50207142D02*
X68939286Y-50207142D01*
X68689286Y-50207142D02*
X68725000Y-50171428D01*
X68760714Y-50207142D01*
X68725000Y-50242857D01*
X68689286Y-50207142D01*
X68760714Y-50207142D01*
X69439286Y-50671428D02*
X69403571Y-50600000D01*
X69332143Y-50564285D01*
X68689286Y-50564285D01*
X69367857Y-50957142D02*
X69403571Y-50992857D01*
X69439286Y-50957142D01*
X69403571Y-50921428D01*
X69367857Y-50957142D01*
X69439286Y-50957142D01*
X69403571Y-51635714D02*
X69439286Y-51564285D01*
X69439286Y-51421428D01*
X69403571Y-51350000D01*
X69367857Y-51314285D01*
X69296429Y-51278571D01*
X69082143Y-51278571D01*
X69010714Y-51314285D01*
X68975000Y-51350000D01*
X68939286Y-51421428D01*
X68939286Y-51564285D01*
X68975000Y-51635714D01*
X69439286Y-52064285D02*
X69403571Y-51992857D01*
X69367857Y-51957142D01*
X69296429Y-51921428D01*
X69082143Y-51921428D01*
X69010714Y-51957142D01*
X68975000Y-51992857D01*
X68939286Y-52064285D01*
X68939286Y-52171428D01*
X68975000Y-52242857D01*
X69010714Y-52278571D01*
X69082143Y-52314285D01*
X69296429Y-52314285D01*
X69367857Y-52278571D01*
X69403571Y-52242857D01*
X69439286Y-52171428D01*
X69439286Y-52064285D01*
X69439286Y-52635713D02*
X68939286Y-52635713D01*
X69010714Y-52635713D02*
X68975000Y-52671428D01*
X68939286Y-52742856D01*
X68939286Y-52849999D01*
X68975000Y-52921428D01*
X69046429Y-52957142D01*
X69439286Y-52957142D01*
X69046429Y-52957142D02*
X68975000Y-52992856D01*
X68939286Y-53064285D01*
X68939286Y-53171428D01*
X68975000Y-53242856D01*
X69046429Y-53278571D01*
X69439286Y-53278571D01*
X68046429Y-38314286D02*
X68082143Y-38421429D01*
X68117857Y-38457144D01*
X68189286Y-38492858D01*
X68296429Y-38492858D01*
X68367857Y-38457144D01*
X68403571Y-38421429D01*
X68439286Y-38350001D01*
X68439286Y-38064286D01*
X67689286Y-38064286D01*
X67689286Y-38314286D01*
X67725000Y-38385715D01*
X67760714Y-38421429D01*
X67832143Y-38457144D01*
X67903571Y-38457144D01*
X67975000Y-38421429D01*
X68010714Y-38385715D01*
X68046429Y-38314286D01*
X68046429Y-38064286D01*
X68439286Y-38814286D02*
X67939286Y-38814286D01*
X68082143Y-38814286D02*
X68010714Y-38850001D01*
X67975000Y-38885715D01*
X67939286Y-38957144D01*
X67939286Y-39028572D01*
X68439286Y-39385715D02*
X68403571Y-39314287D01*
X68367857Y-39278572D01*
X68296429Y-39242858D01*
X68082143Y-39242858D01*
X68010714Y-39278572D01*
X67975000Y-39314287D01*
X67939286Y-39385715D01*
X67939286Y-39492858D01*
X67975000Y-39564287D01*
X68010714Y-39600001D01*
X68082143Y-39635715D01*
X68296429Y-39635715D01*
X68367857Y-39600001D01*
X68403571Y-39564287D01*
X68439286Y-39492858D01*
X68439286Y-39385715D01*
X68439286Y-40064286D02*
X68403571Y-39992858D01*
X68367857Y-39957143D01*
X68296429Y-39921429D01*
X68082143Y-39921429D01*
X68010714Y-39957143D01*
X67975000Y-39992858D01*
X67939286Y-40064286D01*
X67939286Y-40171429D01*
X67975000Y-40242858D01*
X68010714Y-40278572D01*
X68082143Y-40314286D01*
X68296429Y-40314286D01*
X68367857Y-40278572D01*
X68403571Y-40242858D01*
X68439286Y-40171429D01*
X68439286Y-40064286D01*
X68439286Y-40635714D02*
X67689286Y-40635714D01*
X68153571Y-40707143D02*
X68439286Y-40921429D01*
X67939286Y-40921429D02*
X68225000Y-40635714D01*
X68403571Y-41528572D02*
X68439286Y-41457143D01*
X68439286Y-41314286D01*
X68403571Y-41242857D01*
X68332143Y-41207143D01*
X68046429Y-41207143D01*
X67975000Y-41242857D01*
X67939286Y-41314286D01*
X67939286Y-41457143D01*
X67975000Y-41528572D01*
X68046429Y-41564286D01*
X68117857Y-41564286D01*
X68189286Y-41207143D01*
X68439286Y-42457143D02*
X67689286Y-42457143D01*
X68046429Y-42457143D02*
X68046429Y-42885715D01*
X68439286Y-42885715D02*
X67689286Y-42885715D01*
X68403571Y-43528572D02*
X68439286Y-43457143D01*
X68439286Y-43314286D01*
X68403571Y-43242857D01*
X68332143Y-43207143D01*
X68046429Y-43207143D01*
X67975000Y-43242857D01*
X67939286Y-43314286D01*
X67939286Y-43457143D01*
X67975000Y-43528572D01*
X68046429Y-43564286D01*
X68117857Y-43564286D01*
X68189286Y-43207143D01*
X68439286Y-44207143D02*
X67689286Y-44207143D01*
X68403571Y-44207143D02*
X68439286Y-44135714D01*
X68439286Y-43992857D01*
X68403571Y-43921429D01*
X68367857Y-43885714D01*
X68296429Y-43850000D01*
X68082143Y-43850000D01*
X68010714Y-43885714D01*
X67975000Y-43921429D01*
X67939286Y-43992857D01*
X67939286Y-44135714D01*
X67975000Y-44207143D01*
X68439286Y-44564285D02*
X67939286Y-44564285D01*
X68082143Y-44564285D02*
X68010714Y-44600000D01*
X67975000Y-44635714D01*
X67939286Y-44707143D01*
X67939286Y-44778571D01*
X68439286Y-45028571D02*
X67939286Y-45028571D01*
X67689286Y-45028571D02*
X67725000Y-44992857D01*
X67760714Y-45028571D01*
X67725000Y-45064286D01*
X67689286Y-45028571D01*
X67760714Y-45028571D01*
X68403571Y-45707143D02*
X68439286Y-45635714D01*
X68439286Y-45492857D01*
X68403571Y-45421429D01*
X68367857Y-45385714D01*
X68296429Y-45350000D01*
X68082143Y-45350000D01*
X68010714Y-45385714D01*
X67975000Y-45421429D01*
X67939286Y-45492857D01*
X67939286Y-45635714D01*
X67975000Y-45707143D01*
X68439286Y-46028571D02*
X67689286Y-46028571D01*
X68153571Y-46100000D02*
X68439286Y-46314286D01*
X67939286Y-46314286D02*
X68225000Y-46028571D01*
X68082143Y-48242858D02*
X68046429Y-48207144D01*
X68010714Y-48135715D01*
X68010714Y-48064287D01*
X68046429Y-47992858D01*
X68082143Y-47957144D01*
X68153571Y-47921430D01*
X68225000Y-47921430D01*
X68296429Y-47957144D01*
X68332143Y-47992858D01*
X68367857Y-48064287D01*
X68367857Y-48135715D01*
X68332143Y-48207144D01*
X68296429Y-48242858D01*
X68010714Y-48242858D02*
X68296429Y-48242858D01*
X68332143Y-48278572D01*
X68332143Y-48314287D01*
X68296429Y-48385715D01*
X68225000Y-48421430D01*
X68046429Y-48421430D01*
X67939286Y-48350001D01*
X67867857Y-48242858D01*
X67832143Y-48100001D01*
X67867857Y-47957144D01*
X67939286Y-47850001D01*
X68046429Y-47778572D01*
X68189286Y-47742858D01*
X68332143Y-47778572D01*
X68439286Y-47850001D01*
X68510714Y-47957144D01*
X68546429Y-48100001D01*
X68510714Y-48242858D01*
X68439286Y-48350001D01*
X68439286Y-48742858D02*
X67689286Y-48742858D01*
X67975000Y-48742858D02*
X67939286Y-48814287D01*
X67939286Y-48957144D01*
X67975000Y-49028573D01*
X68010714Y-49064287D01*
X68082143Y-49100001D01*
X68296429Y-49100001D01*
X68367857Y-49064287D01*
X68403571Y-49028573D01*
X68439286Y-48957144D01*
X68439286Y-48814287D01*
X68403571Y-48742858D01*
X68439286Y-49421429D02*
X67689286Y-49421429D01*
X68439286Y-49742858D02*
X68046429Y-49742858D01*
X67975000Y-49707144D01*
X67939286Y-49635715D01*
X67939286Y-49528572D01*
X67975000Y-49457144D01*
X68010714Y-49421429D01*
X68403571Y-50385715D02*
X68439286Y-50314286D01*
X68439286Y-50171429D01*
X68403571Y-50100000D01*
X68332143Y-50064286D01*
X68046429Y-50064286D01*
X67975000Y-50100000D01*
X67939286Y-50171429D01*
X67939286Y-50314286D01*
X67975000Y-50385715D01*
X68046429Y-50421429D01*
X68117857Y-50421429D01*
X68189286Y-50064286D01*
X68439286Y-51064286D02*
X67689286Y-51064286D01*
X68403571Y-51064286D02*
X68439286Y-50992857D01*
X68439286Y-50850000D01*
X68403571Y-50778572D01*
X68367857Y-50742857D01*
X68296429Y-50707143D01*
X68082143Y-50707143D01*
X68010714Y-50742857D01*
X67975000Y-50778572D01*
X67939286Y-50850000D01*
X67939286Y-50992857D01*
X67975000Y-51064286D01*
X68439286Y-51421428D02*
X67939286Y-51421428D01*
X68082143Y-51421428D02*
X68010714Y-51457143D01*
X67975000Y-51492857D01*
X67939286Y-51564286D01*
X67939286Y-51635714D01*
X68439286Y-51885714D02*
X67939286Y-51885714D01*
X67689286Y-51885714D02*
X67725000Y-51850000D01*
X67760714Y-51885714D01*
X67725000Y-51921429D01*
X67689286Y-51885714D01*
X67760714Y-51885714D01*
X68403571Y-52564286D02*
X68439286Y-52492857D01*
X68439286Y-52350000D01*
X68403571Y-52278572D01*
X68367857Y-52242857D01*
X68296429Y-52207143D01*
X68082143Y-52207143D01*
X68010714Y-52242857D01*
X67975000Y-52278572D01*
X67939286Y-52350000D01*
X67939286Y-52492857D01*
X67975000Y-52564286D01*
X68439286Y-52885714D02*
X67689286Y-52885714D01*
X68153571Y-52957143D02*
X68439286Y-53171429D01*
X67939286Y-53171429D02*
X68225000Y-52885714D01*
D13*
X59030000Y-38925000D02*
X59030000Y-37725000D01*
X57270000Y-37725000D02*
X57270000Y-38925000D01*
X57495000Y-58100000D02*
X57495000Y-59300000D01*
X59255000Y-59300000D02*
X59255000Y-58100000D01*
X65200000Y-62070000D02*
X64000000Y-62070000D01*
X64000000Y-63830000D02*
X65200000Y-63830000D01*
X59330000Y-54950000D02*
X59330000Y-53750000D01*
X57570000Y-53750000D02*
X57570000Y-54950000D01*
X59255000Y-62725000D02*
X59255000Y-61525000D01*
X57495000Y-61525000D02*
X57495000Y-62725000D01*
X57270000Y-34025000D02*
X57270000Y-35225000D01*
X59030000Y-35225000D02*
X59030000Y-34025000D01*
D10*
X59771429Y-37728571D02*
X59485714Y-37528571D01*
X59771429Y-37385714D02*
X59171429Y-37385714D01*
X59171429Y-37614286D01*
X59200000Y-37671428D01*
X59228571Y-37700000D01*
X59285714Y-37728571D01*
X59371429Y-37728571D01*
X59428571Y-37700000D01*
X59457143Y-37671428D01*
X59485714Y-37614286D01*
X59485714Y-37385714D01*
X59771429Y-38300000D02*
X59771429Y-37957143D01*
X59771429Y-38128571D02*
X59171429Y-38128571D01*
X59257143Y-38071428D01*
X59314286Y-38014286D01*
X59342857Y-37957143D01*
X59171429Y-38671429D02*
X59171429Y-38728572D01*
X59200000Y-38785715D01*
X59228571Y-38814286D01*
X59285714Y-38842857D01*
X59400000Y-38871429D01*
X59542857Y-38871429D01*
X59657143Y-38842857D01*
X59714286Y-38814286D01*
X59742857Y-38785715D01*
X59771429Y-38728572D01*
X59771429Y-38671429D01*
X59742857Y-38614286D01*
X59714286Y-38585715D01*
X59657143Y-38557143D01*
X59542857Y-38528572D01*
X59400000Y-38528572D01*
X59285714Y-38557143D01*
X59228571Y-38585715D01*
X59200000Y-38614286D01*
X59171429Y-38671429D01*
X59771429Y-39442858D02*
X59771429Y-39100001D01*
X59771429Y-39271429D02*
X59171429Y-39271429D01*
X59257143Y-39214286D01*
X59314286Y-39157144D01*
X59342857Y-39100001D01*
D12*
X57702381Y-38252381D02*
X57702381Y-38347620D01*
X57750000Y-38442858D01*
X57797619Y-38490477D01*
X57892857Y-38538096D01*
X58083333Y-38585715D01*
X58321429Y-38585715D01*
X58511905Y-38538096D01*
X58607143Y-38490477D01*
X58654762Y-38442858D01*
X58702381Y-38347620D01*
X58702381Y-38252381D01*
X58654762Y-38157143D01*
X58607143Y-38109524D01*
X58511905Y-38061905D01*
X58321429Y-38014286D01*
X58083333Y-38014286D01*
X57892857Y-38061905D01*
X57797619Y-38109524D01*
X57750000Y-38157143D01*
X57702381Y-38252381D01*
D10*
X59971429Y-58028571D02*
X59685714Y-57828571D01*
X59971429Y-57685714D02*
X59371429Y-57685714D01*
X59371429Y-57914286D01*
X59400000Y-57971428D01*
X59428571Y-58000000D01*
X59485714Y-58028571D01*
X59571429Y-58028571D01*
X59628571Y-58000000D01*
X59657143Y-57971428D01*
X59685714Y-57914286D01*
X59685714Y-57685714D01*
X59971429Y-58600000D02*
X59971429Y-58257143D01*
X59971429Y-58428571D02*
X59371429Y-58428571D01*
X59457143Y-58371428D01*
X59514286Y-58314286D01*
X59542857Y-58257143D01*
X59371429Y-58971429D02*
X59371429Y-59028572D01*
X59400000Y-59085715D01*
X59428571Y-59114286D01*
X59485714Y-59142857D01*
X59600000Y-59171429D01*
X59742857Y-59171429D01*
X59857143Y-59142857D01*
X59914286Y-59114286D01*
X59942857Y-59085715D01*
X59971429Y-59028572D01*
X59971429Y-58971429D01*
X59942857Y-58914286D01*
X59914286Y-58885715D01*
X59857143Y-58857143D01*
X59742857Y-58828572D01*
X59600000Y-58828572D01*
X59485714Y-58857143D01*
X59428571Y-58885715D01*
X59400000Y-58914286D01*
X59371429Y-58971429D01*
X59428571Y-59400001D02*
X59400000Y-59428572D01*
X59371429Y-59485715D01*
X59371429Y-59628572D01*
X59400000Y-59685715D01*
X59428571Y-59714286D01*
X59485714Y-59742858D01*
X59542857Y-59742858D01*
X59628571Y-59714286D01*
X59971429Y-59371429D01*
X59971429Y-59742858D01*
D12*
X57902381Y-58652381D02*
X57902381Y-58747620D01*
X57950000Y-58842858D01*
X57997619Y-58890477D01*
X58092857Y-58938096D01*
X58283333Y-58985715D01*
X58521429Y-58985715D01*
X58711905Y-58938096D01*
X58807143Y-58890477D01*
X58854762Y-58842858D01*
X58902381Y-58747620D01*
X58902381Y-58652381D01*
X58854762Y-58557143D01*
X58807143Y-58509524D01*
X58711905Y-58461905D01*
X58521429Y-58414286D01*
X58283333Y-58414286D01*
X58092857Y-58461905D01*
X57997619Y-58509524D01*
X57950000Y-58557143D01*
X57902381Y-58652381D01*
X65769047Y-61852381D02*
X66102381Y-61376190D01*
X66340476Y-61852381D02*
X66340476Y-60852381D01*
X65959523Y-60852381D01*
X65864285Y-60900000D01*
X65816666Y-60947619D01*
X65769047Y-61042857D01*
X65769047Y-61185714D01*
X65816666Y-61280952D01*
X65864285Y-61328571D01*
X65959523Y-61376190D01*
X66340476Y-61376190D01*
X64816666Y-61852381D02*
X65388095Y-61852381D01*
X65102381Y-61852381D02*
X65102381Y-60852381D01*
X65197619Y-60995238D01*
X65292857Y-61090476D01*
X65388095Y-61138095D01*
X64197619Y-60852381D02*
X64102380Y-60852381D01*
X64007142Y-60900000D01*
X63959523Y-60947619D01*
X63911904Y-61042857D01*
X63864285Y-61233333D01*
X63864285Y-61471429D01*
X63911904Y-61661905D01*
X63959523Y-61757143D01*
X64007142Y-61804762D01*
X64102380Y-61852381D01*
X64197619Y-61852381D01*
X64292857Y-61804762D01*
X64340476Y-61757143D01*
X64388095Y-61661905D01*
X64435714Y-61471429D01*
X64435714Y-61233333D01*
X64388095Y-61042857D01*
X64340476Y-60947619D01*
X64292857Y-60900000D01*
X64197619Y-60852381D01*
X63530952Y-60852381D02*
X62911904Y-60852381D01*
X63245238Y-61233333D01*
X63102380Y-61233333D01*
X63007142Y-61280952D01*
X62959523Y-61328571D01*
X62911904Y-61423810D01*
X62911904Y-61661905D01*
X62959523Y-61757143D01*
X63007142Y-61804762D01*
X63102380Y-61852381D01*
X63388095Y-61852381D01*
X63483333Y-61804762D01*
X63530952Y-61757143D01*
X64597619Y-62452381D02*
X64502380Y-62452381D01*
X64407142Y-62500000D01*
X64359523Y-62547619D01*
X64311904Y-62642857D01*
X64264285Y-62833333D01*
X64264285Y-63071429D01*
X64311904Y-63261905D01*
X64359523Y-63357143D01*
X64407142Y-63404762D01*
X64502380Y-63452381D01*
X64597619Y-63452381D01*
X64692857Y-63404762D01*
X64740476Y-63357143D01*
X64788095Y-63261905D01*
X64835714Y-63071429D01*
X64835714Y-62833333D01*
X64788095Y-62642857D01*
X64740476Y-62547619D01*
X64692857Y-62500000D01*
X64597619Y-62452381D01*
X59969047Y-52652381D02*
X60302381Y-52176190D01*
X60540476Y-52652381D02*
X60540476Y-51652381D01*
X60159523Y-51652381D01*
X60064285Y-51700000D01*
X60016666Y-51747619D01*
X59969047Y-51842857D01*
X59969047Y-51985714D01*
X60016666Y-52080952D01*
X60064285Y-52128571D01*
X60159523Y-52176190D01*
X60540476Y-52176190D01*
X59016666Y-52652381D02*
X59588095Y-52652381D01*
X59302381Y-52652381D02*
X59302381Y-51652381D01*
X59397619Y-51795238D01*
X59492857Y-51890476D01*
X59588095Y-51938095D01*
X58397619Y-51652381D02*
X58302380Y-51652381D01*
X58207142Y-51700000D01*
X58159523Y-51747619D01*
X58111904Y-51842857D01*
X58064285Y-52033333D01*
X58064285Y-52271429D01*
X58111904Y-52461905D01*
X58159523Y-52557143D01*
X58207142Y-52604762D01*
X58302380Y-52652381D01*
X58397619Y-52652381D01*
X58492857Y-52604762D01*
X58540476Y-52557143D01*
X58588095Y-52461905D01*
X58635714Y-52271429D01*
X58635714Y-52033333D01*
X58588095Y-51842857D01*
X58540476Y-51747619D01*
X58492857Y-51700000D01*
X58397619Y-51652381D01*
X57207142Y-51985714D02*
X57207142Y-52652381D01*
X57445238Y-51604762D02*
X57683333Y-52319048D01*
X57064285Y-52319048D01*
X57952381Y-54302381D02*
X57952381Y-54397620D01*
X58000000Y-54492858D01*
X58047619Y-54540477D01*
X58142857Y-54588096D01*
X58333333Y-54635715D01*
X58571429Y-54635715D01*
X58761905Y-54588096D01*
X58857143Y-54540477D01*
X58904762Y-54492858D01*
X58952381Y-54397620D01*
X58952381Y-54302381D01*
X58904762Y-54207143D01*
X58857143Y-54159524D01*
X58761905Y-54111905D01*
X58571429Y-54064286D01*
X58333333Y-54064286D01*
X58142857Y-54111905D01*
X58047619Y-54159524D01*
X58000000Y-54207143D01*
X57952381Y-54302381D01*
X60402381Y-61380953D02*
X59926190Y-61047619D01*
X60402381Y-60809524D02*
X59402381Y-60809524D01*
X59402381Y-61190477D01*
X59450000Y-61285715D01*
X59497619Y-61333334D01*
X59592857Y-61380953D01*
X59735714Y-61380953D01*
X59830952Y-61333334D01*
X59878571Y-61285715D01*
X59926190Y-61190477D01*
X59926190Y-60809524D01*
X60402381Y-62333334D02*
X60402381Y-61761905D01*
X60402381Y-62047619D02*
X59402381Y-62047619D01*
X59545238Y-61952381D01*
X59640476Y-61857143D01*
X59688095Y-61761905D01*
X59402381Y-62952381D02*
X59402381Y-63047620D01*
X59450000Y-63142858D01*
X59497619Y-63190477D01*
X59592857Y-63238096D01*
X59783333Y-63285715D01*
X60021429Y-63285715D01*
X60211905Y-63238096D01*
X60307143Y-63190477D01*
X60354762Y-63142858D01*
X60402381Y-63047620D01*
X60402381Y-62952381D01*
X60354762Y-62857143D01*
X60307143Y-62809524D01*
X60211905Y-62761905D01*
X60021429Y-62714286D01*
X59783333Y-62714286D01*
X59592857Y-62761905D01*
X59497619Y-62809524D01*
X59450000Y-62857143D01*
X59402381Y-62952381D01*
X59402381Y-64190477D02*
X59402381Y-63714286D01*
X59878571Y-63666667D01*
X59830952Y-63714286D01*
X59783333Y-63809524D01*
X59783333Y-64047620D01*
X59830952Y-64142858D01*
X59878571Y-64190477D01*
X59973810Y-64238096D01*
X60211905Y-64238096D01*
X60307143Y-64190477D01*
X60354762Y-64142858D01*
X60402381Y-64047620D01*
X60402381Y-63809524D01*
X60354762Y-63714286D01*
X60307143Y-63666667D01*
X57852381Y-62102381D02*
X57852381Y-62197620D01*
X57900000Y-62292858D01*
X57947619Y-62340477D01*
X58042857Y-62388096D01*
X58233333Y-62435715D01*
X58471429Y-62435715D01*
X58661905Y-62388096D01*
X58757143Y-62340477D01*
X58804762Y-62292858D01*
X58852381Y-62197620D01*
X58852381Y-62102381D01*
X58804762Y-62007143D01*
X58757143Y-61959524D01*
X58661905Y-61911905D01*
X58471429Y-61864286D01*
X58233333Y-61864286D01*
X58042857Y-61911905D01*
X57947619Y-61959524D01*
X57900000Y-62007143D01*
X57852381Y-62102381D01*
D10*
X58671429Y-33021429D02*
X58871429Y-32735714D01*
X59014286Y-33021429D02*
X59014286Y-32421429D01*
X58785714Y-32421429D01*
X58728572Y-32450000D01*
X58700000Y-32478571D01*
X58671429Y-32535714D01*
X58671429Y-32621429D01*
X58700000Y-32678571D01*
X58728572Y-32707143D01*
X58785714Y-32735714D01*
X59014286Y-32735714D01*
X58100000Y-33021429D02*
X58442857Y-33021429D01*
X58271429Y-33021429D02*
X58271429Y-32421429D01*
X58328572Y-32507143D01*
X58385714Y-32564286D01*
X58442857Y-32592857D01*
X57728571Y-32421429D02*
X57671428Y-32421429D01*
X57614285Y-32450000D01*
X57585714Y-32478571D01*
X57557143Y-32535714D01*
X57528571Y-32650000D01*
X57528571Y-32792857D01*
X57557143Y-32907143D01*
X57585714Y-32964286D01*
X57614285Y-32992857D01*
X57671428Y-33021429D01*
X57728571Y-33021429D01*
X57785714Y-32992857D01*
X57814285Y-32964286D01*
X57842857Y-32907143D01*
X57871428Y-32792857D01*
X57871428Y-32650000D01*
X57842857Y-32535714D01*
X57814285Y-32478571D01*
X57785714Y-32450000D01*
X57728571Y-32421429D01*
X57014285Y-32421429D02*
X57128571Y-32421429D01*
X57185714Y-32450000D01*
X57214285Y-32478571D01*
X57271428Y-32564286D01*
X57299999Y-32678571D01*
X57299999Y-32907143D01*
X57271428Y-32964286D01*
X57242856Y-32992857D01*
X57185714Y-33021429D01*
X57071428Y-33021429D01*
X57014285Y-32992857D01*
X56985714Y-32964286D01*
X56957142Y-32907143D01*
X56957142Y-32764286D01*
X56985714Y-32707143D01*
X57014285Y-32678571D01*
X57071428Y-32650000D01*
X57185714Y-32650000D01*
X57242856Y-32678571D01*
X57271428Y-32707143D01*
X57299999Y-32764286D01*
D12*
X57652381Y-34552381D02*
X57652381Y-34647620D01*
X57700000Y-34742858D01*
X57747619Y-34790477D01*
X57842857Y-34838096D01*
X58033333Y-34885715D01*
X58271429Y-34885715D01*
X58461905Y-34838096D01*
X58557143Y-34790477D01*
X58604762Y-34742858D01*
X58652381Y-34647620D01*
X58652381Y-34552381D01*
X58604762Y-34457143D01*
X58557143Y-34409524D01*
X58461905Y-34361905D01*
X58271429Y-34314286D01*
X58033333Y-34314286D01*
X57842857Y-34361905D01*
X57747619Y-34409524D01*
X57700000Y-34457143D01*
X57652381Y-34552381D01*
M02*
